<?xml version="1.0" standalone="no"?>
 <!DOCTYPE svg PUBLIC "-//W3C//DTD SVG 1.1//EN" 
 "http://www.w3.org/Graphics/SVG/1.1/DTD/svg11.dtd"> 
<svg
  xmlns:svg="http://www.w3.org/2000/svg"
  xmlns="http://www.w3.org/2000/svg"
  xmlns:xlink="http://www.w3.org/1999/xlink"
  version="1.1"
  width="155.1940mm" height="28.0670mm" viewBox="0.0000 0.0000 155.1940 28.0670">
<title>SVG Image created as [CAP_SMD_0603_1608Metric]YAGEO CC0603JRNPO9BN121.svg date 2025/04/05 21:12:07 </title>
  <desc>Image generated by Eeschema-SVG </desc>
<g style="fill:#000000; fill-opacity:1.0000;stroke:#000000; stroke-opacity:1.0000;
stroke-linecap:round; stroke-linejoin:round;"
 transform="translate(0 0) scale(1 1)">
<path style="fill:none; 
stroke:#840000; stroke-width:0.1524; stroke-opacity:1; 
stroke-linecap:round; stroke-linejoin:round;fill:none"
d="M 76.3329,8.4395
77.0929,8.4395
" /> 
<path style="fill:none; 
stroke:#840000; stroke-width:0.1524; stroke-opacity:1; 
stroke-linecap:round; stroke-linejoin:round;fill:none"
d="M 77.0929,6.4095
77.0929,10.4695
" /> 
<path style="fill:none; 
stroke:#840000; stroke-width:0.1524; stroke-opacity:1; 
stroke-linecap:round; stroke-linejoin:round;fill:none"
d="M 78.1129,6.4095
78.1129,10.4695
" /> 
<path style="fill:none; 
stroke:#840000; stroke-width:0.1524; stroke-opacity:1; 
stroke-linecap:round; stroke-linejoin:round;fill:none"
d="M 78.1129,8.4395
78.8729,8.4395
" /> 
</g>
<g style="fill:none; 
stroke:#840000; stroke-width:0.1524; stroke-opacity:1; 
stroke-linecap:round; stroke-linejoin:round;">
<path d="M76.3329 8.4395
L73.7929 8.4395
" />
<path d="M78.8729 8.4395
L81.4129 8.4395
" />
</g>
<g style="fill:none; 
stroke:#006464; stroke-width:0.1524; stroke-opacity:1; 
stroke-linecap:round; stroke-linejoin:round;">
<text x="0.0000" y="-4.4450"
textLength="2.5618" font-size="1.6933" lengthAdjust="spacingAndGlyphs"
text-anchor="middle" opacity="0" stroke-opacity="0">C?</text>
<g class="stroked-text"><desc>C?</desc>
<path d="M-0.1512 -4.6213
L-0.2116 -4.5609
" />
<path d="M-0.2116 -4.5609
L-0.3931 -4.5004
" />
<path d="M-0.3931 -4.5004
L-0.5140 -4.5004
" />
<path d="M-0.5140 -4.5004
L-0.6954 -4.5609
" />
<path d="M-0.6954 -4.5609
L-0.8164 -4.6818
" />
<path d="M-0.8164 -4.6818
L-0.8769 -4.8028
" />
<path d="M-0.8769 -4.8028
L-0.9373 -5.0447
" />
<path d="M-0.9373 -5.0447
L-0.9373 -5.2261
" />
<path d="M-0.9373 -5.2261
L-0.8769 -5.4680
" />
<path d="M-0.8769 -5.4680
L-0.8164 -5.5889
" />
<path d="M-0.8164 -5.5889
L-0.6954 -5.7099
" />
<path d="M-0.6954 -5.7099
L-0.5140 -5.7704
" />
<path d="M-0.5140 -5.7704
L-0.3931 -5.7704
" />
<path d="M-0.3931 -5.7704
L-0.2116 -5.7099
" />
<path d="M-0.2116 -5.7099
L-0.1512 -5.6494
" />
<path d="M0.5745 -4.6213
L0.6349 -4.5609
" />
<path d="M0.6349 -4.5609
L0.5745 -4.5004
" />
<path d="M0.5745 -4.5004
L0.5140 -4.5609
" />
<path d="M0.5140 -4.5609
L0.5745 -4.6213
" />
<path d="M0.5745 -4.6213
L0.5745 -4.5004
" />
<path d="M0.3326 -5.7099
L0.4535 -5.7704
" />
<path d="M0.4535 -5.7704
L0.7559 -5.7704
" />
<path d="M0.7559 -5.7704
L0.8768 -5.7099
" />
<path d="M0.8768 -5.7099
L0.9373 -5.5889
" />
<path d="M0.9373 -5.5889
L0.9373 -5.4680
" />
<path d="M0.9373 -5.4680
L0.8768 -5.3470
" />
<path d="M0.8768 -5.3470
L0.8164 -5.2866
" />
<path d="M0.8164 -5.2866
L0.6954 -5.2261
" />
<path d="M0.6954 -5.2261
L0.6349 -5.1656
" />
<path d="M0.6349 -5.1656
L0.5745 -5.0447
" />
<path d="M0.5745 -5.0447
L0.5745 -4.9842
" />
</g></g>
<g style="fill:none; 
stroke:#840084; stroke-width:0.1524; stroke-opacity:1; 
stroke-linecap:round; stroke-linejoin:round;">
<text x="0.0000" y="-2.4130"
textLength="6.0693" font-size="1.6933" lengthAdjust="spacingAndGlyphs"
text-anchor="middle" opacity="0" stroke-opacity="0">120pF</text>
<g class="stroked-text"><desc>120pF</desc>
<path d="M-1.9653 -2.4684
L-2.6910 -2.4684
" />
<path d="M-2.3282 -2.4684
L-2.3282 -3.7384
" />
<path d="M-2.3282 -3.7384
L-2.4491 -3.5569
" />
<path d="M-2.4491 -3.5569
L-2.5701 -3.4360
" />
<path d="M-2.5701 -3.4360
L-2.6910 -3.3755
" />
<path d="M-1.4815 -3.6174
L-1.4211 -3.6779
" />
<path d="M-1.4211 -3.6779
L-1.3001 -3.7384
" />
<path d="M-1.3001 -3.7384
L-0.9977 -3.7384
" />
<path d="M-0.9977 -3.7384
L-0.8768 -3.6779
" />
<path d="M-0.8768 -3.6779
L-0.8163 -3.6174
" />
<path d="M-0.8163 -3.6174
L-0.7558 -3.4965
" />
<path d="M-0.7558 -3.4965
L-0.7558 -3.3755
" />
<path d="M-0.7558 -3.3755
L-0.8163 -3.1941
" />
<path d="M-0.8163 -3.1941
L-1.5420 -2.4684
" />
<path d="M-1.5420 -2.4684
L-0.7558 -2.4684
" />
<path d="M0.0302 -3.7384
L0.1512 -3.7384
" />
<path d="M0.1512 -3.7384
L0.2721 -3.6779
" />
<path d="M0.2721 -3.6779
L0.3326 -3.6174
" />
<path d="M0.3326 -3.6174
L0.3931 -3.4965
" />
<path d="M0.3931 -3.4965
L0.4536 -3.2546
" />
<path d="M0.4536 -3.2546
L0.4536 -2.9522
" />
<path d="M0.4536 -2.9522
L0.3931 -2.7103
" />
<path d="M0.3931 -2.7103
L0.3326 -2.5893
" />
<path d="M0.3326 -2.5893
L0.2721 -2.5289
" />
<path d="M0.2721 -2.5289
L0.1512 -2.4684
" />
<path d="M0.1512 -2.4684
L0.0302 -2.4684
" />
<path d="M0.0302 -2.4684
L-0.0906 -2.5289
" />
<path d="M-0.0906 -2.5289
L-0.1511 -2.5893
" />
<path d="M-0.1511 -2.5893
L-0.2116 -2.7103
" />
<path d="M-0.2116 -2.7103
L-0.2720 -2.9522
" />
<path d="M-0.2720 -2.9522
L-0.2720 -3.2546
" />
<path d="M-0.2720 -3.2546
L-0.2116 -3.4965
" />
<path d="M-0.2116 -3.4965
L-0.1511 -3.6174
" />
<path d="M-0.1511 -3.6174
L-0.0906 -3.6779
" />
<path d="M-0.0906 -3.6779
L0.0302 -3.7384
" />
<path d="M0.9978 -3.3150
L0.9978 -2.0450
" />
<path d="M0.9978 -3.2546
L1.1188 -3.3150
" />
<path d="M1.1188 -3.3150
L1.3607 -3.3150
" />
<path d="M1.3607 -3.3150
L1.4816 -3.2546
" />
<path d="M1.4816 -3.2546
L1.5421 -3.1941
" />
<path d="M1.5421 -3.1941
L1.6026 -3.0731
" />
<path d="M1.6026 -3.0731
L1.6026 -2.7103
" />
<path d="M1.6026 -2.7103
L1.5421 -2.5893
" />
<path d="M1.5421 -2.5893
L1.4816 -2.5289
" />
<path d="M1.4816 -2.5289
L1.3607 -2.4684
" />
<path d="M1.3607 -2.4684
L1.1188 -2.4684
" />
<path d="M1.1188 -2.4684
L0.9978 -2.5289
" />
<path d="M2.5702 -3.1336
L2.1468 -3.1336
" />
<path d="M2.1468 -2.4684
L2.1468 -3.7384
" />
<path d="M2.1468 -3.7384
L2.7516 -3.7384
" />
</g></g> 
</svg>
