<?xml version="1.0" standalone="no"?>
 <!DOCTYPE svg PUBLIC "-//W3C//DTD SVG 1.1//EN" 
 "http://www.w3.org/Graphics/SVG/1.1/DTD/svg11.dtd"> 
<svg
  xmlns:svg="http://www.w3.org/2000/svg"
  xmlns="http://www.w3.org/2000/svg"
  xmlns:xlink="http://www.w3.org/1999/xlink"
  version="1.1"
  width="166.2430mm" height="28.0670mm" viewBox="0.0000 0.0000 166.2430 28.0670">
<title>SVG Image created as [CAP_SMD_0603_1608Metric]47uF_Murata Electronics GRM188R60J476ME15D.svg date 2025/07/04 10:20:06 </title>
  <desc>Image generated by Eeschema-SVG </desc>
<g style="fill:#000000; fill-opacity:1.0000;stroke:#000000; stroke-opacity:1.0000;
stroke-linecap:round; stroke-linejoin:round;"
 transform="translate(0 0) scale(1 1)">
<path style="fill:none; 
stroke:#840000; stroke-width:0.1524; stroke-opacity:1; 
stroke-linecap:round; stroke-linejoin:round;fill:none"
d="M 81.8480,8.4395
82.6080,8.4395
" /> 
<path style="fill:none; 
stroke:#840000; stroke-width:0.1524; stroke-opacity:1; 
stroke-linecap:round; stroke-linejoin:round;fill:none"
d="M 82.6080,6.4095
82.6080,10.4695
" /> 
<path style="fill:none; 
stroke:#840000; stroke-width:0.1524; stroke-opacity:1; 
stroke-linecap:round; stroke-linejoin:round;fill:none"
d="M 83.6280,6.4095
83.6280,10.4695
" /> 
<path style="fill:none; 
stroke:#840000; stroke-width:0.1524; stroke-opacity:1; 
stroke-linecap:round; stroke-linejoin:round;fill:none"
d="M 83.6280,8.4395
84.3880,8.4395
" /> 
</g>
<g style="fill:none; 
stroke:#840000; stroke-width:0.1524; stroke-opacity:1; 
stroke-linecap:round; stroke-linejoin:round;">
<path d="M81.8480 8.4395
L79.3080 8.4395
" />
<path d="M84.3880 8.4395
L86.9280 8.4395
" />
</g>
<g style="fill:none; 
stroke:#006464; stroke-width:0.1524; stroke-opacity:1; 
stroke-linecap:round; stroke-linejoin:round;">
<text x="0.0000" y="-4.4450"
textLength="2.5618" font-size="1.6933" lengthAdjust="spacingAndGlyphs"
text-anchor="middle" opacity="0" stroke-opacity="0">C?</text>
<g class="stroked-text"><desc>C?</desc>
<path d="M-0.1512 -4.6213
L-0.2116 -4.5609
" />
<path d="M-0.2116 -4.5609
L-0.3931 -4.5004
" />
<path d="M-0.3931 -4.5004
L-0.5140 -4.5004
" />
<path d="M-0.5140 -4.5004
L-0.6954 -4.5609
" />
<path d="M-0.6954 -4.5609
L-0.8164 -4.6818
" />
<path d="M-0.8164 -4.6818
L-0.8769 -4.8028
" />
<path d="M-0.8769 -4.8028
L-0.9373 -5.0447
" />
<path d="M-0.9373 -5.0447
L-0.9373 -5.2261
" />
<path d="M-0.9373 -5.2261
L-0.8769 -5.4680
" />
<path d="M-0.8769 -5.4680
L-0.8164 -5.5889
" />
<path d="M-0.8164 -5.5889
L-0.6954 -5.7099
" />
<path d="M-0.6954 -5.7099
L-0.5140 -5.7704
" />
<path d="M-0.5140 -5.7704
L-0.3931 -5.7704
" />
<path d="M-0.3931 -5.7704
L-0.2116 -5.7099
" />
<path d="M-0.2116 -5.7099
L-0.1512 -5.6494
" />
<path d="M0.5745 -4.6213
L0.6349 -4.5609
" />
<path d="M0.6349 -4.5609
L0.5745 -4.5004
" />
<path d="M0.5745 -4.5004
L0.5140 -4.5609
" />
<path d="M0.5140 -4.5609
L0.5745 -4.6213
" />
<path d="M0.5745 -4.6213
L0.5745 -4.5004
" />
<path d="M0.3326 -5.7099
L0.4535 -5.7704
" />
<path d="M0.4535 -5.7704
L0.7559 -5.7704
" />
<path d="M0.7559 -5.7704
L0.8768 -5.7099
" />
<path d="M0.8768 -5.7099
L0.9373 -5.5889
" />
<path d="M0.9373 -5.5889
L0.9373 -5.4680
" />
<path d="M0.9373 -5.4680
L0.8768 -5.3470
" />
<path d="M0.8768 -5.3470
L0.8164 -5.2866
" />
<path d="M0.8164 -5.2866
L0.6954 -5.2261
" />
<path d="M0.6954 -5.2261
L0.6349 -5.1656
" />
<path d="M0.6349 -5.1656
L0.5745 -5.0447
" />
<path d="M0.5745 -5.0447
L0.5745 -4.9842
" />
</g></g>
<g style="fill:none; 
stroke:#840084; stroke-width:0.1524; stroke-opacity:1; 
stroke-linecap:round; stroke-linejoin:round;">
<text x="0.0000" y="-2.4130"
textLength="4.8598" font-size="1.6933" lengthAdjust="spacingAndGlyphs"
text-anchor="middle" opacity="0" stroke-opacity="0">47uF</text>
<g class="stroked-text"><desc>47uF</desc>
<path d="M-1.4816 -3.3150
L-1.4816 -2.4684
" />
<path d="M-1.7840 -3.7989
L-2.0863 -2.8917
" />
<path d="M-2.0863 -2.8917
L-1.3002 -2.8917
" />
<path d="M-0.9373 -3.7384
L-0.0907 -3.7384
" />
<path d="M-0.0907 -3.7384
L-0.6349 -2.4684
" />
<path d="M0.9373 -3.3150
L0.9373 -2.4684
" />
<path d="M0.3930 -3.3150
L0.3930 -2.6498
" />
<path d="M0.3930 -2.6498
L0.4535 -2.5289
" />
<path d="M0.4535 -2.5289
L0.5745 -2.4684
" />
<path d="M0.5745 -2.4684
L0.7559 -2.4684
" />
<path d="M0.7559 -2.4684
L0.8768 -2.5289
" />
<path d="M0.8768 -2.5289
L0.9373 -2.5893
" />
<path d="M1.9654 -3.1336
L1.5420 -3.1336
" />
<path d="M1.5420 -2.4684
L1.5420 -3.7384
" />
<path d="M1.5420 -3.7384
L2.1468 -3.7384
" />
</g></g> 
</svg>
