<?xml version="1.0" standalone="no"?>
 <!DOCTYPE svg PUBLIC "-//W3C//DTD SVG 1.1//EN" 
 "http://www.w3.org/Graphics/SVG/1.1/DTD/svg11.dtd"> 
<svg
  xmlns:svg="http://www.w3.org/2000/svg"
  xmlns="http://www.w3.org/2000/svg"
  xmlns:xlink="http://www.w3.org/1999/xlink"
  version="1.1"
  width="105.5624mm" height="33.5534mm" viewBox="0.0000 0.0000 105.5624 33.5534">
<title>SVG Image created as [CAP_SMD_1206_3216Metric]1nF_YAGEO CC1206KKX7RDBB102.svg date 2025/08/11 10:42:51 </title>
  <desc>Image generated by Eeschema-SVG </desc>
<g style="fill:#000000; fill-opacity:1.0000;stroke:#000000; stroke-opacity:1.0000;
stroke-linecap:round; stroke-linejoin:round;"
 transform="translate(0 0) scale(1 1)">
<path style="fill:none; 
stroke:#840000; stroke-width:0.2500; stroke-opacity:1; 
stroke-linecap:round; stroke-linejoin:round;fill:none"
d="M 52.2755,8.1347
52.2755,5.0867
" /> 
<path style="fill:none; 
stroke:#840000; stroke-width:0.2500; stroke-opacity:1; 
stroke-linecap:round; stroke-linejoin:round;fill:none"
d="M 53.2915,8.1347
53.2915,5.0867
" /> 
</g>
<g style="fill:none; 
stroke:#840000; stroke-width:0.1524; stroke-opacity:1; 
stroke-linecap:round; stroke-linejoin:round;">
<path d="M52.2755 6.6107
L50.2435 6.6107
" />
<path d="M53.2915 6.6107
L55.3235 6.6107
" />
</g>
<g style="fill:none; 
stroke:#006464; stroke-width:0.1524; stroke-opacity:1; 
stroke-linecap:round; stroke-linejoin:round;">
<text x="0.0000" y="-2.1590"
textLength="2.5618" font-size="1.6933" lengthAdjust="spacingAndGlyphs"
text-anchor="middle" opacity="0" stroke-opacity="0">C?</text>
<g class="stroked-text"><desc>C?</desc>
<path d="M-0.1512 -2.3353
L-0.2116 -2.2749
" />
<path d="M-0.2116 -2.2749
L-0.3931 -2.2144
" />
<path d="M-0.3931 -2.2144
L-0.5140 -2.2144
" />
<path d="M-0.5140 -2.2144
L-0.6954 -2.2749
" />
<path d="M-0.6954 -2.2749
L-0.8164 -2.3958
" />
<path d="M-0.8164 -2.3958
L-0.8769 -2.5168
" />
<path d="M-0.8769 -2.5168
L-0.9373 -2.7587
" />
<path d="M-0.9373 -2.7587
L-0.9373 -2.9401
" />
<path d="M-0.9373 -2.9401
L-0.8769 -3.1820
" />
<path d="M-0.8769 -3.1820
L-0.8164 -3.3029
" />
<path d="M-0.8164 -3.3029
L-0.6954 -3.4239
" />
<path d="M-0.6954 -3.4239
L-0.5140 -3.4844
" />
<path d="M-0.5140 -3.4844
L-0.3931 -3.4844
" />
<path d="M-0.3931 -3.4844
L-0.2116 -3.4239
" />
<path d="M-0.2116 -3.4239
L-0.1512 -3.3634
" />
<path d="M0.5745 -2.3353
L0.6349 -2.2749
" />
<path d="M0.6349 -2.2749
L0.5745 -2.2144
" />
<path d="M0.5745 -2.2144
L0.5140 -2.2749
" />
<path d="M0.5140 -2.2749
L0.5745 -2.3353
" />
<path d="M0.5745 -2.3353
L0.5745 -2.2144
" />
<path d="M0.3326 -3.4239
L0.4535 -3.4844
" />
<path d="M0.4535 -3.4844
L0.7559 -3.4844
" />
<path d="M0.7559 -3.4844
L0.8768 -3.4239
" />
<path d="M0.8768 -3.4239
L0.9373 -3.3029
" />
<path d="M0.9373 -3.3029
L0.9373 -3.1820
" />
<path d="M0.9373 -3.1820
L0.8768 -3.0610
" />
<path d="M0.8768 -3.0610
L0.8164 -3.0006
" />
<path d="M0.8164 -3.0006
L0.6954 -2.9401
" />
<path d="M0.6954 -2.9401
L0.6349 -2.8796
" />
<path d="M0.6349 -2.8796
L0.5745 -2.7587
" />
<path d="M0.5745 -2.7587
L0.5745 -2.6982
" />
</g></g>
<g style="fill:none; 
stroke:#840084; stroke-width:0.1524; stroke-opacity:1; 
stroke-linecap:round; stroke-linejoin:round;">
<text x="0.2540" y="3.6830"
textLength="3.6503" font-size="1.6933" lengthAdjust="spacingAndGlyphs"
text-anchor="middle" opacity="0" stroke-opacity="0">1nF</text>
<g class="stroked-text"><desc>1nF</desc>
<path d="M-0.5018 3.6275
L-1.2275 3.6275
" />
<path d="M-0.8647 3.6275
L-0.8647 2.3575
" />
<path d="M-0.8647 2.3575
L-0.9856 2.5390
" />
<path d="M-0.9856 2.5390
L-1.1066 2.6599
" />
<path d="M-1.1066 2.6599
L-1.2275 2.7204
" />
<path d="M0.0423 2.7809
L0.0423 3.6275
" />
<path d="M0.0423 2.9018
L0.1028 2.8413
" />
<path d="M0.1028 2.8413
L0.2238 2.7809
" />
<path d="M0.2238 2.7809
L0.4052 2.7809
" />
<path d="M0.4052 2.7809
L0.5261 2.8413
" />
<path d="M0.5261 2.8413
L0.5866 2.9623
" />
<path d="M0.5866 2.9623
L0.5866 3.6275
" />
<path d="M1.6147 2.9623
L1.1913 2.9623
" />
<path d="M1.1913 3.6275
L1.1913 2.3575
" />
<path d="M1.1913 2.3575
L1.7961 2.3575
" />
</g></g> 
</svg>
