<?xml version="1.0" standalone="no"?>
 <!DOCTYPE svg PUBLIC "-//W3C//DTD SVG 1.1//EN" 
 "http://www.w3.org/Graphics/SVG/1.1/DTD/svg11.dtd"> 
<svg
  xmlns:svg="http://www.w3.org/2000/svg"
  xmlns="http://www.w3.org/2000/svg"
  xmlns:xlink="http://www.w3.org/1999/xlink"
  version="1.1"
  width="98.9584mm" height="33.8582mm" viewBox="0.0000 0.0000 98.9584 33.8582">
<title>SVG Image created as [CAP_SMD_0805_2012Metric]100uF_muRata GRM21BR60J107ME15L.svg date 2025/08/15 21:52:42 </title>
  <desc>Image generated by Eeschema-SVG </desc>
<g style="fill:#000000; fill-opacity:1.0000;stroke:#000000; stroke-opacity:1.0000;
stroke-linecap:round; stroke-linejoin:round;"
 transform="translate(0 0) scale(1 1)">
<path style="fill:none; 
stroke:#840000; stroke-width:0.2500; stroke-opacity:1; 
stroke-linecap:round; stroke-linejoin:round;fill:none"
d="M 48.9735,7.9061
48.9735,4.8581
" /> 
<path style="fill:none; 
stroke:#840000; stroke-width:0.2500; stroke-opacity:1; 
stroke-linecap:round; stroke-linejoin:round;fill:none"
d="M 49.9895,7.9061
49.9895,4.8581
" /> 
</g>
<g style="fill:none; 
stroke:#840000; stroke-width:0.1524; stroke-opacity:1; 
stroke-linecap:round; stroke-linejoin:round;">
<path d="M48.9735 6.3821
L46.9415 6.3821
" />
<path d="M49.9895 6.3821
L52.0215 6.3821
" />
</g>
<g style="fill:none; 
stroke:#006464; stroke-width:0.1524; stroke-opacity:1; 
stroke-linecap:round; stroke-linejoin:round;">
<text x="0.0000" y="-1.9050"
textLength="2.5618" font-size="1.6933" lengthAdjust="spacingAndGlyphs"
text-anchor="middle" opacity="0" stroke-opacity="0">C?</text>
<g class="stroked-text"><desc>C?</desc>
<path d="M-0.1512 -2.0813
L-0.2116 -2.0209
" />
<path d="M-0.2116 -2.0209
L-0.3931 -1.9604
" />
<path d="M-0.3931 -1.9604
L-0.5140 -1.9604
" />
<path d="M-0.5140 -1.9604
L-0.6954 -2.0209
" />
<path d="M-0.6954 -2.0209
L-0.8164 -2.1418
" />
<path d="M-0.8164 -2.1418
L-0.8769 -2.2628
" />
<path d="M-0.8769 -2.2628
L-0.9373 -2.5047
" />
<path d="M-0.9373 -2.5047
L-0.9373 -2.6861
" />
<path d="M-0.9373 -2.6861
L-0.8769 -2.9280
" />
<path d="M-0.8769 -2.9280
L-0.8164 -3.0489
" />
<path d="M-0.8164 -3.0489
L-0.6954 -3.1699
" />
<path d="M-0.6954 -3.1699
L-0.5140 -3.2304
" />
<path d="M-0.5140 -3.2304
L-0.3931 -3.2304
" />
<path d="M-0.3931 -3.2304
L-0.2116 -3.1699
" />
<path d="M-0.2116 -3.1699
L-0.1512 -3.1094
" />
<path d="M0.5745 -2.0813
L0.6349 -2.0209
" />
<path d="M0.6349 -2.0209
L0.5745 -1.9604
" />
<path d="M0.5745 -1.9604
L0.5140 -2.0209
" />
<path d="M0.5140 -2.0209
L0.5745 -2.0813
" />
<path d="M0.5745 -2.0813
L0.5745 -1.9604
" />
<path d="M0.3326 -3.1699
L0.4535 -3.2304
" />
<path d="M0.4535 -3.2304
L0.7559 -3.2304
" />
<path d="M0.7559 -3.2304
L0.8768 -3.1699
" />
<path d="M0.8768 -3.1699
L0.9373 -3.0489
" />
<path d="M0.9373 -3.0489
L0.9373 -2.9280
" />
<path d="M0.9373 -2.9280
L0.8768 -2.8070
" />
<path d="M0.8768 -2.8070
L0.8164 -2.7466
" />
<path d="M0.8164 -2.7466
L0.6954 -2.6861
" />
<path d="M0.6954 -2.6861
L0.6349 -2.6256
" />
<path d="M0.6349 -2.6256
L0.5745 -2.5047
" />
<path d="M0.5745 -2.5047
L0.5745 -2.4442
" />
</g></g>
<g style="fill:none; 
stroke:#840084; stroke-width:0.1524; stroke-opacity:1; 
stroke-linecap:round; stroke-linejoin:round;">
<text x="0.0000" y="3.6830"
textLength="6.0693" font-size="1.6933" lengthAdjust="spacingAndGlyphs"
text-anchor="middle" opacity="0" stroke-opacity="0">100uF</text>
<g class="stroked-text"><desc>100uF</desc>
<path d="M-1.9653 3.6275
L-2.6910 3.6275
" />
<path d="M-2.3282 3.6275
L-2.3282 2.3575
" />
<path d="M-2.3282 2.3575
L-2.4491 2.5390
" />
<path d="M-2.4491 2.5390
L-2.5701 2.6599
" />
<path d="M-2.5701 2.6599
L-2.6910 2.7204
" />
<path d="M-1.1792 2.3575
L-1.0582 2.3575
" />
<path d="M-1.0582 2.3575
L-0.9373 2.4180
" />
<path d="M-0.9373 2.4180
L-0.8768 2.4785
" />
<path d="M-0.8768 2.4785
L-0.8163 2.5994
" />
<path d="M-0.8163 2.5994
L-0.7558 2.8413
" />
<path d="M-0.7558 2.8413
L-0.7558 3.1437
" />
<path d="M-0.7558 3.1437
L-0.8163 3.3856
" />
<path d="M-0.8163 3.3856
L-0.8768 3.5066
" />
<path d="M-0.8768 3.5066
L-0.9373 3.5671
" />
<path d="M-0.9373 3.5671
L-1.0582 3.6275
" />
<path d="M-1.0582 3.6275
L-1.1792 3.6275
" />
<path d="M-1.1792 3.6275
L-1.3001 3.5671
" />
<path d="M-1.3001 3.5671
L-1.3606 3.5066
" />
<path d="M-1.3606 3.5066
L-1.4211 3.3856
" />
<path d="M-1.4211 3.3856
L-1.4815 3.1437
" />
<path d="M-1.4815 3.1437
L-1.4815 2.8413
" />
<path d="M-1.4815 2.8413
L-1.4211 2.5994
" />
<path d="M-1.4211 2.5994
L-1.3606 2.4785
" />
<path d="M-1.3606 2.4785
L-1.3001 2.4180
" />
<path d="M-1.3001 2.4180
L-1.1792 2.3575
" />
<path d="M0.0302 2.3575
L0.1512 2.3575
" />
<path d="M0.1512 2.3575
L0.2721 2.4180
" />
<path d="M0.2721 2.4180
L0.3326 2.4785
" />
<path d="M0.3326 2.4785
L0.3931 2.5994
" />
<path d="M0.3931 2.5994
L0.4536 2.8413
" />
<path d="M0.4536 2.8413
L0.4536 3.1437
" />
<path d="M0.4536 3.1437
L0.3931 3.3856
" />
<path d="M0.3931 3.3856
L0.3326 3.5066
" />
<path d="M0.3326 3.5066
L0.2721 3.5671
" />
<path d="M0.2721 3.5671
L0.1512 3.6275
" />
<path d="M0.1512 3.6275
L0.0302 3.6275
" />
<path d="M0.0302 3.6275
L-0.0906 3.5671
" />
<path d="M-0.0906 3.5671
L-0.1511 3.5066
" />
<path d="M-0.1511 3.5066
L-0.2116 3.3856
" />
<path d="M-0.2116 3.3856
L-0.2720 3.1437
" />
<path d="M-0.2720 3.1437
L-0.2720 2.8413
" />
<path d="M-0.2720 2.8413
L-0.2116 2.5994
" />
<path d="M-0.2116 2.5994
L-0.1511 2.4785
" />
<path d="M-0.1511 2.4785
L-0.0906 2.4180
" />
<path d="M-0.0906 2.4180
L0.0302 2.3575
" />
<path d="M1.5421 2.7809
L1.5421 3.6275
" />
<path d="M0.9978 2.7809
L0.9978 3.4461
" />
<path d="M0.9978 3.4461
L1.0583 3.5671
" />
<path d="M1.0583 3.5671
L1.1793 3.6275
" />
<path d="M1.1793 3.6275
L1.3607 3.6275
" />
<path d="M1.3607 3.6275
L1.4816 3.5671
" />
<path d="M1.4816 3.5671
L1.5421 3.5066
" />
<path d="M2.5702 2.9623
L2.1468 2.9623
" />
<path d="M2.1468 3.6275
L2.1468 2.3575
" />
<path d="M2.1468 2.3575
L2.7516 2.3575
" />
</g></g> 
</svg>
