<?xml version="1.0" standalone="no"?>
 <!DOCTYPE svg PUBLIC "-//W3C//DTD SVG 1.1//EN" 
 "http://www.w3.org/Graphics/SVG/1.1/DTD/svg11.dtd"> 
<svg
  xmlns:svg="http://www.w3.org/2000/svg"
  xmlns="http://www.w3.org/2000/svg"
  xmlns:xlink="http://www.w3.org/1999/xlink"
  version="1.1"
  width="176.8348mm" height="31.7246mm" viewBox="0.0000 0.0000 176.8348 31.7246">
<title>SVG Image created as [CAP_SMD_0805_2012Metric]Samsung Electro-Mechanics CL21A106KAYNNNE.svg date 2025/04/05 21:08:24 </title>
  <desc>Image generated by Eeschema-SVG </desc>
<g style="fill:#000000; fill-opacity:1.0000;stroke:#000000; stroke-opacity:1.0000;
stroke-linecap:round; stroke-linejoin:round;"
 transform="translate(0 0) scale(1 1)">
<path style="fill:none; 
stroke:#840000; stroke-width:0.1524; stroke-opacity:1; 
stroke-linecap:round; stroke-linejoin:round;fill:none"
d="M 87.1460,9.5063
87.9060,9.5063
" /> 
<path style="fill:none; 
stroke:#840000; stroke-width:0.1524; stroke-opacity:1; 
stroke-linecap:round; stroke-linejoin:round;fill:none"
d="M 87.9060,7.4763
87.9060,11.5363
" /> 
<path style="fill:none; 
stroke:#840000; stroke-width:0.1524; stroke-opacity:1; 
stroke-linecap:round; stroke-linejoin:round;fill:none"
d="M 88.9260,7.4763
88.9260,11.5363
" /> 
<path style="fill:none; 
stroke:#840000; stroke-width:0.1524; stroke-opacity:1; 
stroke-linecap:round; stroke-linejoin:round;fill:none"
d="M 88.9260,9.5063
89.6860,9.5063
" /> 
</g>
<g style="fill:none; 
stroke:#840000; stroke-width:0.1524; stroke-opacity:1; 
stroke-linecap:round; stroke-linejoin:round;">
<path d="M87.1460 9.5063
L84.6060 9.5063
" />
<path d="M89.6860 9.5063
L92.2260 9.5063
" />
</g>
<g style="fill:none; 
stroke:#006464; stroke-width:0.1524; stroke-opacity:1; 
stroke-linecap:round; stroke-linejoin:round;">
<text x="0.0000" y="-5.2070"
textLength="2.5618" font-size="1.6933" lengthAdjust="spacingAndGlyphs"
text-anchor="middle" opacity="0" stroke-opacity="0">C?</text>
<g class="stroked-text"><desc>C?</desc>
<path d="M-0.1512 -5.3833
L-0.2116 -5.3229
" />
<path d="M-0.2116 -5.3229
L-0.3931 -5.2624
" />
<path d="M-0.3931 -5.2624
L-0.5140 -5.2624
" />
<path d="M-0.5140 -5.2624
L-0.6954 -5.3229
" />
<path d="M-0.6954 -5.3229
L-0.8164 -5.4438
" />
<path d="M-0.8164 -5.4438
L-0.8769 -5.5648
" />
<path d="M-0.8769 -5.5648
L-0.9373 -5.8067
" />
<path d="M-0.9373 -5.8067
L-0.9373 -5.9881
" />
<path d="M-0.9373 -5.9881
L-0.8769 -6.2300
" />
<path d="M-0.8769 -6.2300
L-0.8164 -6.3509
" />
<path d="M-0.8164 -6.3509
L-0.6954 -6.4719
" />
<path d="M-0.6954 -6.4719
L-0.5140 -6.5324
" />
<path d="M-0.5140 -6.5324
L-0.3931 -6.5324
" />
<path d="M-0.3931 -6.5324
L-0.2116 -6.4719
" />
<path d="M-0.2116 -6.4719
L-0.1512 -6.4114
" />
<path d="M0.5745 -5.3833
L0.6349 -5.3229
" />
<path d="M0.6349 -5.3229
L0.5745 -5.2624
" />
<path d="M0.5745 -5.2624
L0.5140 -5.3229
" />
<path d="M0.5140 -5.3229
L0.5745 -5.3833
" />
<path d="M0.5745 -5.3833
L0.5745 -5.2624
" />
<path d="M0.3326 -6.4719
L0.4535 -6.5324
" />
<path d="M0.4535 -6.5324
L0.7559 -6.5324
" />
<path d="M0.7559 -6.5324
L0.8768 -6.4719
" />
<path d="M0.8768 -6.4719
L0.9373 -6.3509
" />
<path d="M0.9373 -6.3509
L0.9373 -6.2300
" />
<path d="M0.9373 -6.2300
L0.8768 -6.1090
" />
<path d="M0.8768 -6.1090
L0.8164 -6.0486
" />
<path d="M0.8164 -6.0486
L0.6954 -5.9881
" />
<path d="M0.6954 -5.9881
L0.6349 -5.9276
" />
<path d="M0.6349 -5.9276
L0.5745 -5.8067
" />
<path d="M0.5745 -5.8067
L0.5745 -5.7462
" />
</g></g>
<g style="fill:none; 
stroke:#840084; stroke-width:0.1524; stroke-opacity:1; 
stroke-linecap:round; stroke-linejoin:round;">
<text x="0.2540" y="-2.9210"
textLength="4.8598" font-size="1.6933" lengthAdjust="spacingAndGlyphs"
text-anchor="middle" opacity="0" stroke-opacity="0">10uF</text>
<g class="stroked-text"><desc>10uF</desc>
<path d="M-1.1066 -2.9764
L-1.8323 -2.9764
" />
<path d="M-1.4695 -2.9764
L-1.4695 -4.2464
" />
<path d="M-1.4695 -4.2464
L-1.5904 -4.0649
" />
<path d="M-1.5904 -4.0649
L-1.7114 -3.9440
" />
<path d="M-1.7114 -3.9440
L-1.8323 -3.8835
" />
<path d="M-0.3205 -4.2464
L-0.1995 -4.2464
" />
<path d="M-0.1995 -4.2464
L-0.0786 -4.1859
" />
<path d="M-0.0786 -4.1859
L-0.0181 -4.1254
" />
<path d="M-0.0181 -4.1254
L0.0423 -4.0045
" />
<path d="M0.0423 -4.0045
L0.1028 -3.7626
" />
<path d="M0.1028 -3.7626
L0.1028 -3.4602
" />
<path d="M0.1028 -3.4602
L0.0423 -3.2183
" />
<path d="M0.0423 -3.2183
L-0.0181 -3.0973
" />
<path d="M-0.0181 -3.0973
L-0.0786 -3.0369
" />
<path d="M-0.0786 -3.0369
L-0.1995 -2.9764
" />
<path d="M-0.1995 -2.9764
L-0.3205 -2.9764
" />
<path d="M-0.3205 -2.9764
L-0.4414 -3.0369
" />
<path d="M-0.4414 -3.0369
L-0.5019 -3.0973
" />
<path d="M-0.5019 -3.0973
L-0.5624 -3.2183
" />
<path d="M-0.5624 -3.2183
L-0.6228 -3.4602
" />
<path d="M-0.6228 -3.4602
L-0.6228 -3.7626
" />
<path d="M-0.6228 -3.7626
L-0.5624 -4.0045
" />
<path d="M-0.5624 -4.0045
L-0.5019 -4.1254
" />
<path d="M-0.5019 -4.1254
L-0.4414 -4.1859
" />
<path d="M-0.4414 -4.1859
L-0.3205 -4.2464
" />
<path d="M1.1913 -3.8230
L1.1913 -2.9764
" />
<path d="M0.6470 -3.8230
L0.6470 -3.1578
" />
<path d="M0.6470 -3.1578
L0.7075 -3.0369
" />
<path d="M0.7075 -3.0369
L0.8285 -2.9764
" />
<path d="M0.8285 -2.9764
L1.0099 -2.9764
" />
<path d="M1.0099 -2.9764
L1.1308 -3.0369
" />
<path d="M1.1308 -3.0369
L1.1913 -3.0973
" />
<path d="M2.2194 -3.6416
L1.7960 -3.6416
" />
<path d="M1.7960 -2.9764
L1.7960 -4.2464
" />
<path d="M1.7960 -4.2464
L2.4008 -4.2464
" />
</g></g> 
</svg>
