<?xml version="1.0" standalone="no"?>
 <!DOCTYPE svg PUBLIC "-//W3C//DTD SVG 1.1//EN" 
 "http://www.w3.org/Graphics/SVG/1.1/DTD/svg11.dtd"> 
<svg
  xmlns:svg="http://www.w3.org/2000/svg"
  xmlns="http://www.w3.org/2000/svg"
  xmlns:xlink="http://www.w3.org/1999/xlink"
  version="1.1"
  width="115.1382mm" height="28.6766mm" viewBox="0.0000 0.0000 115.1382 28.6766">
<title>SVG Image created as [RES_SMD_0201_0603Metric]1M_YAGEO RC0201FR-071ML.svg date 2025/08/17 22:22:11 </title>
  <desc>Image generated by Eeschema-SVG </desc>
<g style="fill:#000000; fill-opacity:1.0000;stroke:#000000; stroke-opacity:1.0000;
stroke-linecap:round; stroke-linejoin:round;"
 transform="translate(0 0) scale(1 1)">
</g>
<g style="fill:none; 
stroke:#840000; stroke-width:0.1500; stroke-opacity:1; 
stroke-linecap:round; stroke-linejoin:round;">
<rect x="54.271100" y="4.426300" width="3.556000" height="1.524000" rx="0.000000" />
</g>
<g style="fill:none; 
stroke:#840000; stroke-width:0.1524; stroke-opacity:1; 
stroke-linecap:round; stroke-linejoin:round;">
<path d="M54.2711 5.1883
L53.5091 5.1883
" />
<path d="M57.8271 5.1883
L58.5891 5.1883
" />
</g>
<g style="fill:none; 
stroke:#006464; stroke-width:0.1524; stroke-opacity:1; 
stroke-linecap:round; stroke-linejoin:round;">
<text x="0.0000" y="-1.1430"
textLength="2.5618" font-size="1.6933" lengthAdjust="spacingAndGlyphs"
text-anchor="middle" opacity="0" stroke-opacity="0">R?</text>
<g class="stroked-text"><desc>R?</desc>
<path d="M-0.1512 -1.1984
L-0.5745 -1.8031
" />
<path d="M-0.8769 -1.1984
L-0.8769 -2.4684
" />
<path d="M-0.8769 -2.4684
L-0.3931 -2.4684
" />
<path d="M-0.3931 -2.4684
L-0.2721 -2.4079
" />
<path d="M-0.2721 -2.4079
L-0.2116 -2.3474
" />
<path d="M-0.2116 -2.3474
L-0.1512 -2.2265
" />
<path d="M-0.1512 -2.2265
L-0.1512 -2.0450
" />
<path d="M-0.1512 -2.0450
L-0.2116 -1.9241
" />
<path d="M-0.2116 -1.9241
L-0.2721 -1.8636
" />
<path d="M-0.2721 -1.8636
L-0.3931 -1.8031
" />
<path d="M-0.3931 -1.8031
L-0.8769 -1.8031
" />
<path d="M0.5745 -1.3193
L0.6349 -1.2589
" />
<path d="M0.6349 -1.2589
L0.5745 -1.1984
" />
<path d="M0.5745 -1.1984
L0.5140 -1.2589
" />
<path d="M0.5140 -1.2589
L0.5745 -1.3193
" />
<path d="M0.5745 -1.3193
L0.5745 -1.1984
" />
<path d="M0.3326 -2.4079
L0.4535 -2.4684
" />
<path d="M0.4535 -2.4684
L0.7559 -2.4684
" />
<path d="M0.7559 -2.4684
L0.8768 -2.4079
" />
<path d="M0.8768 -2.4079
L0.9373 -2.2869
" />
<path d="M0.9373 -2.2869
L0.9373 -2.1660
" />
<path d="M0.9373 -2.1660
L0.8768 -2.0450
" />
<path d="M0.8768 -2.0450
L0.8164 -1.9846
" />
<path d="M0.8164 -1.9846
L0.6954 -1.9241
" />
<path d="M0.6954 -1.9241
L0.6349 -1.8636
" />
<path d="M0.6349 -1.8636
L0.5745 -1.7427
" />
<path d="M0.5745 -1.7427
L0.5745 -1.6822
" />
</g></g>
<g style="fill:none; 
stroke:#840084; stroke-width:0.1524; stroke-opacity:1; 
stroke-linecap:round; stroke-linejoin:round;">
<text x="0.0000" y="2.6670"
textLength="2.8641" font-size="1.6933" lengthAdjust="spacingAndGlyphs"
text-anchor="middle" opacity="0" stroke-opacity="0">1M</text>
<g class="stroked-text"><desc>1M</desc>
<path d="M-0.3627 2.6115
L-1.0884 2.6115
" />
<path d="M-0.7256 2.6115
L-0.7256 1.3415
" />
<path d="M-0.7256 1.3415
L-0.8465 1.5230
" />
<path d="M-0.8465 1.5230
L-0.9675 1.6439
" />
<path d="M-0.9675 1.6439
L-1.0884 1.7044
" />
<path d="M0.1814 2.6115
L0.1814 1.3415
" />
<path d="M0.1814 1.3415
L0.6048 2.2487
" />
<path d="M0.6048 2.2487
L1.0281 1.3415
" />
<path d="M1.0281 1.3415
L1.0281 2.6115
" />
</g></g> 
</svg>
