<?xml version="1.0" standalone="no"?>
 <!DOCTYPE svg PUBLIC "-//W3C//DTD SVG 1.1//EN" 
 "http://www.w3.org/Graphics/SVG/1.1/DTD/svg11.dtd"> 
<svg
  xmlns:svg="http://www.w3.org/2000/svg"
  xmlns="http://www.w3.org/2000/svg"
  xmlns:xlink="http://www.w3.org/1999/xlink"
  version="1.1"
  width="116.3066mm" height="28.6766mm" viewBox="0.0000 0.0000 116.3066 28.6766">
<title>SVG Image created as [RES_SMD_0201_0603Metric]470R_YAGEO RC0201FR-07470RL.svg date 2025/08/19 09:47:10 </title>
  <desc>Image generated by Eeschema-SVG </desc>
<g style="fill:#000000; fill-opacity:1.0000;stroke:#000000; stroke-opacity:1.0000;
stroke-linecap:round; stroke-linejoin:round;"
 transform="translate(0 0) scale(1 1)">
</g>
<g style="fill:none; 
stroke:#840000; stroke-width:0.1500; stroke-opacity:1; 
stroke-linecap:round; stroke-linejoin:round;">
<rect x="54.851600" y="4.426300" width="3.556000" height="1.524000" rx="0.000000" />
</g>
<g style="fill:none; 
stroke:#840000; stroke-width:0.1524; stroke-opacity:1; 
stroke-linecap:round; stroke-linejoin:round;">
<path d="M54.8516 5.1883
L54.0896 5.1883
" />
<path d="M58.4076 5.1883
L59.1696 5.1883
" />
</g>
<g style="fill:none; 
stroke:#006464; stroke-width:0.1524; stroke-opacity:1; 
stroke-linecap:round; stroke-linejoin:round;">
<text x="0.0000" y="-1.1430"
textLength="2.5618" font-size="1.6933" lengthAdjust="spacingAndGlyphs"
text-anchor="middle" opacity="0" stroke-opacity="0">R?</text>
<g class="stroked-text"><desc>R?</desc>
<path d="M-0.1512 -1.1984
L-0.5745 -1.8031
" />
<path d="M-0.8769 -1.1984
L-0.8769 -2.4684
" />
<path d="M-0.8769 -2.4684
L-0.3931 -2.4684
" />
<path d="M-0.3931 -2.4684
L-0.2721 -2.4079
" />
<path d="M-0.2721 -2.4079
L-0.2116 -2.3474
" />
<path d="M-0.2116 -2.3474
L-0.1512 -2.2265
" />
<path d="M-0.1512 -2.2265
L-0.1512 -2.0450
" />
<path d="M-0.1512 -2.0450
L-0.2116 -1.9241
" />
<path d="M-0.2116 -1.9241
L-0.2721 -1.8636
" />
<path d="M-0.2721 -1.8636
L-0.3931 -1.8031
" />
<path d="M-0.3931 -1.8031
L-0.8769 -1.8031
" />
<path d="M0.5745 -1.3193
L0.6349 -1.2589
" />
<path d="M0.6349 -1.2589
L0.5745 -1.1984
" />
<path d="M0.5745 -1.1984
L0.5140 -1.2589
" />
<path d="M0.5140 -1.2589
L0.5745 -1.3193
" />
<path d="M0.5745 -1.3193
L0.5745 -1.1984
" />
<path d="M0.3326 -2.4079
L0.4535 -2.4684
" />
<path d="M0.4535 -2.4684
L0.7559 -2.4684
" />
<path d="M0.7559 -2.4684
L0.8768 -2.4079
" />
<path d="M0.8768 -2.4079
L0.9373 -2.2869
" />
<path d="M0.9373 -2.2869
L0.9373 -2.1660
" />
<path d="M0.9373 -2.1660
L0.8768 -2.0450
" />
<path d="M0.8768 -2.0450
L0.8164 -1.9846
" />
<path d="M0.8164 -1.9846
L0.6954 -1.9241
" />
<path d="M0.6954 -1.9241
L0.6349 -1.8636
" />
<path d="M0.6349 -1.8636
L0.5745 -1.7427
" />
<path d="M0.5745 -1.7427
L0.5745 -1.6822
" />
</g></g>
<g style="fill:none; 
stroke:#840084; stroke-width:0.1524; stroke-opacity:1; 
stroke-linecap:round; stroke-linejoin:round;">
<text x="0.0000" y="2.4130"
textLength="5.1017" font-size="1.6933" lengthAdjust="spacingAndGlyphs"
text-anchor="middle" opacity="0" stroke-opacity="0">470R</text>
<g class="stroked-text"><desc>470R</desc>
<path d="M-1.6025 1.5109
L-1.6025 2.3575
" />
<path d="M-1.9049 1.0271
L-2.2072 1.9342
" />
<path d="M-2.2072 1.9342
L-1.4211 1.9342
" />
<path d="M-1.0582 1.0875
L-0.2116 1.0875
" />
<path d="M-0.2116 1.0875
L-0.7558 2.3575
" />
<path d="M0.5140 1.0875
L0.6350 1.0875
" />
<path d="M0.6350 1.0875
L0.7559 1.1480
" />
<path d="M0.7559 1.1480
L0.8164 1.2085
" />
<path d="M0.8164 1.2085
L0.8769 1.3294
" />
<path d="M0.8769 1.3294
L0.9374 1.5713
" />
<path d="M0.9374 1.5713
L0.9374 1.8737
" />
<path d="M0.9374 1.8737
L0.8769 2.1156
" />
<path d="M0.8769 2.1156
L0.8164 2.2366
" />
<path d="M0.8164 2.2366
L0.7559 2.2971
" />
<path d="M0.7559 2.2971
L0.6350 2.3575
" />
<path d="M0.6350 2.3575
L0.5140 2.3575
" />
<path d="M0.5140 2.3575
L0.3931 2.2971
" />
<path d="M0.3931 2.2971
L0.3326 2.2366
" />
<path d="M0.3326 2.2366
L0.2721 2.1156
" />
<path d="M0.2721 2.1156
L0.2117 1.8737
" />
<path d="M0.2117 1.8737
L0.2117 1.5713
" />
<path d="M0.2117 1.5713
L0.2721 1.3294
" />
<path d="M0.2721 1.3294
L0.3326 1.2085
" />
<path d="M0.3326 1.2085
L0.3931 1.1480
" />
<path d="M0.3931 1.1480
L0.5140 1.0875
" />
<path d="M2.2073 2.3575
L1.7840 1.7528
" />
<path d="M1.4816 2.3575
L1.4816 1.0875
" />
<path d="M1.4816 1.0875
L1.9654 1.0875
" />
<path d="M1.9654 1.0875
L2.0864 1.1480
" />
<path d="M2.0864 1.1480
L2.1469 1.2085
" />
<path d="M2.1469 1.2085
L2.2073 1.3294
" />
<path d="M2.2073 1.3294
L2.2073 1.5109
" />
<path d="M2.2073 1.5109
L2.1469 1.6318
" />
<path d="M2.1469 1.6318
L2.0864 1.6923
" />
<path d="M2.0864 1.6923
L1.9654 1.7528
" />
<path d="M1.9654 1.7528
L1.4816 1.7528
" />
</g></g> 
</svg>
