<?xml version="1.0" standalone="no"?>
 <!DOCTYPE svg PUBLIC "-//W3C//DTD SVG 1.1//EN" 
 "http://www.w3.org/Graphics/SVG/1.1/DTD/svg11.dtd"> 
<svg
  xmlns:svg="http://www.w3.org/2000/svg"
  xmlns="http://www.w3.org/2000/svg"
  xmlns:xlink="http://www.w3.org/1999/xlink"
  version="1.1"
  width="130.4544mm" height="28.6766mm" viewBox="0.0000 0.0000 130.4544 28.6766">
<title>SVG Image created as [RES_SMD_0201_0603Metric]33_YAGEO RC0201FR-0733RL.svg date 2025/04/09 20:53:02 </title>
  <desc>Image generated by Eeschema-SVG </desc>
<g style="fill:#000000; fill-opacity:1.0000;stroke:#000000; stroke-opacity:1.0000;
stroke-linecap:round; stroke-linejoin:round;"
 transform="translate(0 0) scale(1 1)">
</g>
<g style="fill:none; 
stroke:#840000; stroke-width:0.1524; stroke-opacity:1; 
stroke-linecap:round; stroke-linejoin:round;">
<rect x="62.689600" y="4.676300" width="5.080000" height="2.040000" rx="0.000000" />
<path d="M62.6896 5.6963
L60.1496 5.6963
" />
<path d="M67.7696 5.6963
L70.3096 5.6963
" />
</g>
<g style="fill:none; 
stroke:#006464; stroke-width:0.1524; stroke-opacity:1; 
stroke-linecap:round; stroke-linejoin:round;">
<text x="0.0000" y="-1.6510"
textLength="2.5618" font-size="1.6933" lengthAdjust="spacingAndGlyphs"
text-anchor="middle" opacity="0" stroke-opacity="0">R?</text>
<g class="stroked-text"><desc>R?</desc>
<path d="M-0.1512 -1.7064
L-0.5745 -2.3111
" />
<path d="M-0.8769 -1.7064
L-0.8769 -2.9764
" />
<path d="M-0.8769 -2.9764
L-0.3931 -2.9764
" />
<path d="M-0.3931 -2.9764
L-0.2721 -2.9159
" />
<path d="M-0.2721 -2.9159
L-0.2116 -2.8554
" />
<path d="M-0.2116 -2.8554
L-0.1512 -2.7345
" />
<path d="M-0.1512 -2.7345
L-0.1512 -2.5530
" />
<path d="M-0.1512 -2.5530
L-0.2116 -2.4321
" />
<path d="M-0.2116 -2.4321
L-0.2721 -2.3716
" />
<path d="M-0.2721 -2.3716
L-0.3931 -2.3111
" />
<path d="M-0.3931 -2.3111
L-0.8769 -2.3111
" />
<path d="M0.5745 -1.8273
L0.6349 -1.7669
" />
<path d="M0.6349 -1.7669
L0.5745 -1.7064
" />
<path d="M0.5745 -1.7064
L0.5140 -1.7669
" />
<path d="M0.5140 -1.7669
L0.5745 -1.8273
" />
<path d="M0.5745 -1.8273
L0.5745 -1.7064
" />
<path d="M0.3326 -2.9159
L0.4535 -2.9764
" />
<path d="M0.4535 -2.9764
L0.7559 -2.9764
" />
<path d="M0.7559 -2.9764
L0.8768 -2.9159
" />
<path d="M0.8768 -2.9159
L0.9373 -2.7949
" />
<path d="M0.9373 -2.7949
L0.9373 -2.6740
" />
<path d="M0.9373 -2.6740
L0.8768 -2.5530
" />
<path d="M0.8768 -2.5530
L0.8164 -2.4926
" />
<path d="M0.8164 -2.4926
L0.6954 -2.4321
" />
<path d="M0.6954 -2.4321
L0.6349 -2.3716
" />
<path d="M0.6349 -2.3716
L0.5745 -2.2507
" />
<path d="M0.5745 -2.2507
L0.5745 -2.1902
" />
</g></g>
<g style="fill:none; 
stroke:#840084; stroke-width:0.1524; stroke-opacity:1; 
stroke-linecap:round; stroke-linejoin:round;">
<text x="0.0000" y="3.1750"
textLength="2.6222" font-size="1.6933" lengthAdjust="spacingAndGlyphs"
text-anchor="middle" opacity="0" stroke-opacity="0">33</text>
<g class="stroked-text"><desc>33</desc>
<path d="M-1.0280 1.8495
L-0.2418 1.8495
" />
<path d="M-0.2418 1.8495
L-0.6652 2.3333
" />
<path d="M-0.6652 2.3333
L-0.4837 2.3333
" />
<path d="M-0.4837 2.3333
L-0.3628 2.3938
" />
<path d="M-0.3628 2.3938
L-0.3023 2.4543
" />
<path d="M-0.3023 2.4543
L-0.2418 2.5752
" />
<path d="M-0.2418 2.5752
L-0.2418 2.8776
" />
<path d="M-0.2418 2.8776
L-0.3023 2.9986
" />
<path d="M-0.3023 2.9986
L-0.3628 3.0591
" />
<path d="M-0.3628 3.0591
L-0.4837 3.1195
" />
<path d="M-0.4837 3.1195
L-0.8466 3.1195
" />
<path d="M-0.8466 3.1195
L-0.9675 3.0591
" />
<path d="M-0.9675 3.0591
L-1.0280 2.9986
" />
<path d="M0.1814 1.8495
L0.9676 1.8495
" />
<path d="M0.9676 1.8495
L0.5442 2.3333
" />
<path d="M0.5442 2.3333
L0.7257 2.3333
" />
<path d="M0.7257 2.3333
L0.8466 2.3938
" />
<path d="M0.8466 2.3938
L0.9071 2.4543
" />
<path d="M0.9071 2.4543
L0.9676 2.5752
" />
<path d="M0.9676 2.5752
L0.9676 2.8776
" />
<path d="M0.9676 2.8776
L0.9071 2.9986
" />
<path d="M0.9071 2.9986
L0.8466 3.0591
" />
<path d="M0.8466 3.0591
L0.7257 3.1195
" />
<path d="M0.7257 3.1195
L0.3628 3.1195
" />
<path d="M0.3628 3.1195
L0.2419 3.0591
" />
<path d="M0.2419 3.0591
L0.1814 2.9986
" />
</g></g> 
</svg>
