<?xml version="1.0" standalone="no"?>
 <!DOCTYPE svg PUBLIC "-//W3C//DTD SVG 1.1//EN" 
 "http://www.w3.org/Graphics/SVG/1.1/DTD/svg11.dtd"> 
<svg
  xmlns:svg="http://www.w3.org/2000/svg"
  xmlns="http://www.w3.org/2000/svg"
  xmlns:xlink="http://www.w3.org/1999/xlink"
  version="1.1"
  width="159.3342mm" height="28.6766mm" viewBox="0.0000 0.0000 159.3342 28.6766">
<title>SVG Image created as [RES_SMD_0402_1005Metric]240_YAGEO RC0402FR-07240RL.svg date 2025/07/24 08:10:15 </title>
  <desc>Image generated by Eeschema-SVG </desc>
<g style="fill:#000000; fill-opacity:1.0000;stroke:#000000; stroke-opacity:1.0000;
stroke-linecap:round; stroke-linejoin:round;"
 transform="translate(0 0) scale(1 1)">
</g>
<g style="fill:none; 
stroke:#840000; stroke-width:0.1524; stroke-opacity:1; 
stroke-linecap:round; stroke-linejoin:round;">
<rect x="77.131100" y="4.676300" width="5.080000" height="2.040000" rx="0.000000" />
<path d="M77.1311 5.6963
L74.5911 5.6963
" />
<path d="M82.2111 5.6963
L84.7511 5.6963
" />
</g>
<g style="fill:none; 
stroke:#006464; stroke-width:0.1524; stroke-opacity:1; 
stroke-linecap:round; stroke-linejoin:round;">
<text x="0.0000" y="-1.6510"
textLength="2.5618" font-size="1.6933" lengthAdjust="spacingAndGlyphs"
text-anchor="middle" opacity="0" stroke-opacity="0">R?</text>
<g class="stroked-text"><desc>R?</desc>
<path d="M-0.1512 -1.7064
L-0.5745 -2.3111
" />
<path d="M-0.8769 -1.7064
L-0.8769 -2.9764
" />
<path d="M-0.8769 -2.9764
L-0.3931 -2.9764
" />
<path d="M-0.3931 -2.9764
L-0.2721 -2.9159
" />
<path d="M-0.2721 -2.9159
L-0.2116 -2.8554
" />
<path d="M-0.2116 -2.8554
L-0.1512 -2.7345
" />
<path d="M-0.1512 -2.7345
L-0.1512 -2.5530
" />
<path d="M-0.1512 -2.5530
L-0.2116 -2.4321
" />
<path d="M-0.2116 -2.4321
L-0.2721 -2.3716
" />
<path d="M-0.2721 -2.3716
L-0.3931 -2.3111
" />
<path d="M-0.3931 -2.3111
L-0.8769 -2.3111
" />
<path d="M0.5745 -1.8273
L0.6349 -1.7669
" />
<path d="M0.6349 -1.7669
L0.5745 -1.7064
" />
<path d="M0.5745 -1.7064
L0.5140 -1.7669
" />
<path d="M0.5140 -1.7669
L0.5745 -1.8273
" />
<path d="M0.5745 -1.8273
L0.5745 -1.7064
" />
<path d="M0.3326 -2.9159
L0.4535 -2.9764
" />
<path d="M0.4535 -2.9764
L0.7559 -2.9764
" />
<path d="M0.7559 -2.9764
L0.8768 -2.9159
" />
<path d="M0.8768 -2.9159
L0.9373 -2.7949
" />
<path d="M0.9373 -2.7949
L0.9373 -2.6740
" />
<path d="M0.9373 -2.6740
L0.8768 -2.5530
" />
<path d="M0.8768 -2.5530
L0.8164 -2.4926
" />
<path d="M0.8164 -2.4926
L0.6954 -2.4321
" />
<path d="M0.6954 -2.4321
L0.6349 -2.3716
" />
<path d="M0.6349 -2.3716
L0.5745 -2.2507
" />
<path d="M0.5745 -2.2507
L0.5745 -2.1902
" />
</g></g>
<g style="fill:none; 
stroke:#840084; stroke-width:0.1524; stroke-opacity:1; 
stroke-linecap:round; stroke-linejoin:round;">
<text x="0.0000" y="2.9210"
textLength="3.8317" font-size="1.6933" lengthAdjust="spacingAndGlyphs"
text-anchor="middle" opacity="0" stroke-opacity="0">240</text>
<g class="stroked-text"><desc>240</desc>
<path d="M-1.5722 1.7165
L-1.5118 1.6560
" />
<path d="M-1.5118 1.6560
L-1.3908 1.5955
" />
<path d="M-1.3908 1.5955
L-1.0884 1.5955
" />
<path d="M-1.0884 1.5955
L-0.9675 1.6560
" />
<path d="M-0.9675 1.6560
L-0.9070 1.7165
" />
<path d="M-0.9070 1.7165
L-0.8465 1.8374
" />
<path d="M-0.8465 1.8374
L-0.8465 1.9584
" />
<path d="M-0.8465 1.9584
L-0.9070 2.1398
" />
<path d="M-0.9070 2.1398
L-1.6327 2.8655
" />
<path d="M-1.6327 2.8655
L-0.8465 2.8655
" />
<path d="M0.2419 2.0189
L0.2419 2.8655
" />
<path d="M-0.0604 1.5351
L-0.3627 2.4422
" />
<path d="M-0.3627 2.4422
L0.4233 2.4422
" />
<path d="M1.1490 1.5955
L1.2700 1.5955
" />
<path d="M1.2700 1.5955
L1.3909 1.6560
" />
<path d="M1.3909 1.6560
L1.4514 1.7165
" />
<path d="M1.4514 1.7165
L1.5119 1.8374
" />
<path d="M1.5119 1.8374
L1.5724 2.0793
" />
<path d="M1.5724 2.0793
L1.5724 2.3817
" />
<path d="M1.5724 2.3817
L1.5119 2.6236
" />
<path d="M1.5119 2.6236
L1.4514 2.7446
" />
<path d="M1.4514 2.7446
L1.3909 2.8051
" />
<path d="M1.3909 2.8051
L1.2700 2.8655
" />
<path d="M1.2700 2.8655
L1.1490 2.8655
" />
<path d="M1.1490 2.8655
L1.0281 2.8051
" />
<path d="M1.0281 2.8051
L0.9676 2.7446
" />
<path d="M0.9676 2.7446
L0.9071 2.6236
" />
<path d="M0.9071 2.6236
L0.8467 2.3817
" />
<path d="M0.8467 2.3817
L0.8467 2.0793
" />
<path d="M0.8467 2.0793
L0.9071 1.8374
" />
<path d="M0.9071 1.8374
L0.9676 1.7165
" />
<path d="M0.9676 1.7165
L1.0281 1.6560
" />
<path d="M1.0281 1.6560
L1.1490 1.5955
" />
</g></g> 
</svg>
