<?xml version="1.0" standalone="no"?>
 <!DOCTYPE svg PUBLIC "-//W3C//DTD SVG 1.1//EN" 
 "http://www.w3.org/Graphics/SVG/1.1/DTD/svg11.dtd"> 
<svg
  xmlns:svg="http://www.w3.org/2000/svg"
  xmlns="http://www.w3.org/2000/svg"
  xmlns:xlink="http://www.w3.org/1999/xlink"
  version="1.1"
  width="150.6982mm" height="28.6766mm" viewBox="0.0000 0.0000 150.6982 28.6766">
<title>SVG Image created as [RES_SMD_0402_1005Metric]2_2k_UNI-ROYAL(Uniroyal Elec) 0402WGF2201TCE.svg date 2025/06/06 18:40:44 </title>
  <desc>Image generated by Eeschema-SVG </desc>
<g style="fill:#000000; fill-opacity:1.0000;stroke:#000000; stroke-opacity:1.0000;
stroke-linecap:round; stroke-linejoin:round;"
 transform="translate(0 0) scale(1 1)">
</g>
<g style="fill:none; 
stroke:#840000; stroke-width:0.1524; stroke-opacity:1; 
stroke-linecap:round; stroke-linejoin:round;">
<rect x="72.813200" y="4.676300" width="5.080000" height="2.040000" rx="0.000000" />
<path d="M72.8132 5.6963
L70.2732 5.6963
" />
<path d="M77.8932 5.6963
L80.4332 5.6963
" />
</g>
<g style="fill:none; 
stroke:#006464; stroke-width:0.1524; stroke-opacity:1; 
stroke-linecap:round; stroke-linejoin:round;">
<text x="0.0000" y="-1.6510"
textLength="2.5618" font-size="1.6933" lengthAdjust="spacingAndGlyphs"
text-anchor="middle" opacity="0" stroke-opacity="0">R?</text>
<g class="stroked-text"><desc>R?</desc>
<path d="M-0.1512 -1.7064
L-0.5745 -2.3111
" />
<path d="M-0.8769 -1.7064
L-0.8769 -2.9764
" />
<path d="M-0.8769 -2.9764
L-0.3931 -2.9764
" />
<path d="M-0.3931 -2.9764
L-0.2721 -2.9159
" />
<path d="M-0.2721 -2.9159
L-0.2116 -2.8554
" />
<path d="M-0.2116 -2.8554
L-0.1512 -2.7345
" />
<path d="M-0.1512 -2.7345
L-0.1512 -2.5530
" />
<path d="M-0.1512 -2.5530
L-0.2116 -2.4321
" />
<path d="M-0.2116 -2.4321
L-0.2721 -2.3716
" />
<path d="M-0.2721 -2.3716
L-0.3931 -2.3111
" />
<path d="M-0.3931 -2.3111
L-0.8769 -2.3111
" />
<path d="M0.5745 -1.8273
L0.6349 -1.7669
" />
<path d="M0.6349 -1.7669
L0.5745 -1.7064
" />
<path d="M0.5745 -1.7064
L0.5140 -1.7669
" />
<path d="M0.5140 -1.7669
L0.5745 -1.8273
" />
<path d="M0.5745 -1.8273
L0.5745 -1.7064
" />
<path d="M0.3326 -2.9159
L0.4535 -2.9764
" />
<path d="M0.4535 -2.9764
L0.7559 -2.9764
" />
<path d="M0.7559 -2.9764
L0.8768 -2.9159
" />
<path d="M0.8768 -2.9159
L0.9373 -2.7949
" />
<path d="M0.9373 -2.7949
L0.9373 -2.6740
" />
<path d="M0.9373 -2.6740
L0.8768 -2.5530
" />
<path d="M0.8768 -2.5530
L0.8164 -2.4926
" />
<path d="M0.8164 -2.4926
L0.6954 -2.4321
" />
<path d="M0.6954 -2.4321
L0.6349 -2.3716
" />
<path d="M0.6349 -2.3716
L0.5745 -2.2507
" />
<path d="M0.5745 -2.2507
L0.5745 -2.1902
" />
</g></g>
<g style="fill:none; 
stroke:#840084; stroke-width:0.1524; stroke-opacity:1; 
stroke-linecap:round; stroke-linejoin:round;">
<text x="0.0000" y="2.9210"
textLength="4.2551" font-size="1.6933" lengthAdjust="spacingAndGlyphs"
text-anchor="middle" opacity="0" stroke-opacity="0">2.2k</text>
<g class="stroked-text"><desc>2.2k</desc>
<path d="M-1.7839 1.7165
L-1.7235 1.6560
" />
<path d="M-1.7235 1.6560
L-1.6025 1.5955
" />
<path d="M-1.6025 1.5955
L-1.3001 1.5955
" />
<path d="M-1.3001 1.5955
L-1.1792 1.6560
" />
<path d="M-1.1792 1.6560
L-1.1187 1.7165
" />
<path d="M-1.1187 1.7165
L-1.0582 1.8374
" />
<path d="M-1.0582 1.8374
L-1.0582 1.9584
" />
<path d="M-1.0582 1.9584
L-1.1187 2.1398
" />
<path d="M-1.1187 2.1398
L-1.8444 2.8655
" />
<path d="M-1.8444 2.8655
L-1.0582 2.8655
" />
<path d="M-0.5140 2.7446
L-0.4535 2.8051
" />
<path d="M-0.4535 2.8051
L-0.5140 2.8655
" />
<path d="M-0.5140 2.8655
L-0.5744 2.8051
" />
<path d="M-0.5744 2.8051
L-0.5140 2.7446
" />
<path d="M-0.5140 2.7446
L-0.5140 2.8655
" />
<path d="M0.0303 1.7165
L0.0907 1.6560
" />
<path d="M0.0907 1.6560
L0.2117 1.5955
" />
<path d="M0.2117 1.5955
L0.5141 1.5955
" />
<path d="M0.5141 1.5955
L0.6350 1.6560
" />
<path d="M0.6350 1.6560
L0.6955 1.7165
" />
<path d="M0.6955 1.7165
L0.7560 1.8374
" />
<path d="M0.7560 1.8374
L0.7560 1.9584
" />
<path d="M0.7560 1.9584
L0.6955 2.1398
" />
<path d="M0.6955 2.1398
L-0.0301 2.8655
" />
<path d="M-0.0301 2.8655
L0.7560 2.8655
" />
<path d="M1.3002 2.8655
L1.3002 1.5955
" />
<path d="M1.4212 2.3817
L1.7840 2.8655
" />
<path d="M1.7840 2.0189
L1.3002 2.5027
" />
</g></g> 
</svg>
