<?xml version="1.0" standalone="no"?>
 <!DOCTYPE svg PUBLIC "-//W3C//DTD SVG 1.1//EN" 
 "http://www.w3.org/Graphics/SVG/1.1/DTD/svg11.dtd"> 
<svg
  xmlns:svg="http://www.w3.org/2000/svg"
  xmlns="http://www.w3.org/2000/svg"
  xmlns:xlink="http://www.w3.org/1999/xlink"
  version="1.1"
  width="131.9022mm" height="28.6766mm" viewBox="0.0000 0.0000 131.9022 28.6766">
<title>SVG Image created as [RES_SMD_0402_1005Metric]2_49k_YAGEO RC0402FR-072K49L.svg date 2025/04/09 21:00:59 </title>
  <desc>Image generated by Eeschema-SVG </desc>
<g style="fill:#000000; fill-opacity:1.0000;stroke:#000000; stroke-opacity:1.0000;
stroke-linecap:round; stroke-linejoin:round;"
 transform="translate(0 0) scale(1 1)">
</g>
<g style="fill:none; 
stroke:#840000; stroke-width:0.1524; stroke-opacity:1; 
stroke-linecap:round; stroke-linejoin:round;">
<rect x="63.415200" y="4.676300" width="5.080000" height="2.040000" rx="0.000000" />
<path d="M63.4152 5.6963
L60.8752 5.6963
" />
<path d="M68.4952 5.6963
L71.0352 5.6963
" />
</g>
<g style="fill:none; 
stroke:#006464; stroke-width:0.1524; stroke-opacity:1; 
stroke-linecap:round; stroke-linejoin:round;">
<text x="0.0000" y="-1.6510"
textLength="2.5618" font-size="1.6933" lengthAdjust="spacingAndGlyphs"
text-anchor="middle" opacity="0" stroke-opacity="0">R?</text>
<g class="stroked-text"><desc>R?</desc>
<path d="M-0.1512 -1.7064
L-0.5745 -2.3111
" />
<path d="M-0.8769 -1.7064
L-0.8769 -2.9764
" />
<path d="M-0.8769 -2.9764
L-0.3931 -2.9764
" />
<path d="M-0.3931 -2.9764
L-0.2721 -2.9159
" />
<path d="M-0.2721 -2.9159
L-0.2116 -2.8554
" />
<path d="M-0.2116 -2.8554
L-0.1512 -2.7345
" />
<path d="M-0.1512 -2.7345
L-0.1512 -2.5530
" />
<path d="M-0.1512 -2.5530
L-0.2116 -2.4321
" />
<path d="M-0.2116 -2.4321
L-0.2721 -2.3716
" />
<path d="M-0.2721 -2.3716
L-0.3931 -2.3111
" />
<path d="M-0.3931 -2.3111
L-0.8769 -2.3111
" />
<path d="M0.5745 -1.8273
L0.6349 -1.7669
" />
<path d="M0.6349 -1.7669
L0.5745 -1.7064
" />
<path d="M0.5745 -1.7064
L0.5140 -1.7669
" />
<path d="M0.5140 -1.7669
L0.5745 -1.8273
" />
<path d="M0.5745 -1.8273
L0.5745 -1.7064
" />
<path d="M0.3326 -2.9159
L0.4535 -2.9764
" />
<path d="M0.4535 -2.9764
L0.7559 -2.9764
" />
<path d="M0.7559 -2.9764
L0.8768 -2.9159
" />
<path d="M0.8768 -2.9159
L0.9373 -2.7949
" />
<path d="M0.9373 -2.7949
L0.9373 -2.6740
" />
<path d="M0.9373 -2.6740
L0.8768 -2.5530
" />
<path d="M0.8768 -2.5530
L0.8164 -2.4926
" />
<path d="M0.8164 -2.4926
L0.6954 -2.4321
" />
<path d="M0.6954 -2.4321
L0.6349 -2.3716
" />
<path d="M0.6349 -2.3716
L0.5745 -2.2507
" />
<path d="M0.5745 -2.2507
L0.5745 -2.1902
" />
</g></g>
<g style="fill:none; 
stroke:#840084; stroke-width:0.1524; stroke-opacity:1; 
stroke-linecap:round; stroke-linejoin:round;">
<text x="0.0000" y="2.9210"
textLength="5.4646" font-size="1.6933" lengthAdjust="spacingAndGlyphs"
text-anchor="middle" opacity="0" stroke-opacity="0">2.49k</text>
<g class="stroked-text"><desc>2.49k</desc>
<path d="M-2.3887 1.7165
L-2.3283 1.6560
" />
<path d="M-2.3283 1.6560
L-2.2073 1.5955
" />
<path d="M-2.2073 1.5955
L-1.9049 1.5955
" />
<path d="M-1.9049 1.5955
L-1.7840 1.6560
" />
<path d="M-1.7840 1.6560
L-1.7235 1.7165
" />
<path d="M-1.7235 1.7165
L-1.6630 1.8374
" />
<path d="M-1.6630 1.8374
L-1.6630 1.9584
" />
<path d="M-1.6630 1.9584
L-1.7235 2.1398
" />
<path d="M-1.7235 2.1398
L-2.4492 2.8655
" />
<path d="M-2.4492 2.8655
L-1.6630 2.8655
" />
<path d="M-1.1188 2.7446
L-1.0583 2.8051
" />
<path d="M-1.0583 2.8051
L-1.1188 2.8655
" />
<path d="M-1.1188 2.8655
L-1.1792 2.8051
" />
<path d="M-1.1792 2.8051
L-1.1188 2.7446
" />
<path d="M-1.1188 2.7446
L-1.1188 2.8655
" />
<path d="M0.0302 2.0189
L0.0302 2.8655
" />
<path d="M-0.2721 1.5351
L-0.5744 2.4422
" />
<path d="M-0.5744 2.4422
L0.2116 2.4422
" />
<path d="M0.7559 2.8655
L0.9978 2.8655
" />
<path d="M0.9978 2.8655
L1.1188 2.8051
" />
<path d="M1.1188 2.8051
L1.1792 2.7446
" />
<path d="M1.1792 2.7446
L1.3002 2.5631
" />
<path d="M1.3002 2.5631
L1.3607 2.3212
" />
<path d="M1.3607 2.3212
L1.3607 1.8374
" />
<path d="M1.3607 1.8374
L1.3002 1.7165
" />
<path d="M1.3002 1.7165
L1.2397 1.6560
" />
<path d="M1.2397 1.6560
L1.1188 1.5955
" />
<path d="M1.1188 1.5955
L0.8769 1.5955
" />
<path d="M0.8769 1.5955
L0.7559 1.6560
" />
<path d="M0.7559 1.6560
L0.6954 1.7165
" />
<path d="M0.6954 1.7165
L0.6350 1.8374
" />
<path d="M0.6350 1.8374
L0.6350 2.1398
" />
<path d="M0.6350 2.1398
L0.6954 2.2608
" />
<path d="M0.6954 2.2608
L0.7559 2.3212
" />
<path d="M0.7559 2.3212
L0.8769 2.3817
" />
<path d="M0.8769 2.3817
L1.1188 2.3817
" />
<path d="M1.1188 2.3817
L1.2397 2.3212
" />
<path d="M1.2397 2.3212
L1.3002 2.2608
" />
<path d="M1.3002 2.2608
L1.3607 2.1398
" />
<path d="M1.9049 2.8655
L1.9049 1.5955
" />
<path d="M2.0259 2.3817
L2.3887 2.8655
" />
<path d="M2.3887 2.0189
L1.9049 2.5027
" />
</g></g> 
</svg>
