<?xml version="1.0" standalone="no"?>
 <!DOCTYPE svg PUBLIC "-//W3C//DTD SVG 1.1//EN" 
 "http://www.w3.org/Graphics/SVG/1.1/DTD/svg11.dtd"> 
<svg
  xmlns:svg="http://www.w3.org/2000/svg"
  xmlns="http://www.w3.org/2000/svg"
  xmlns:xlink="http://www.w3.org/1999/xlink"
  version="1.1"
  width="127.2540mm" height="28.6766mm" viewBox="0.0000 0.0000 127.2540 28.6766">
<title>SVG Image created as [RES_SMD_0402_1005Metric]11k_UNI-ROYAL 0402WGF1102TCE.svg date 2025/07/23 14:07:12 </title>
  <desc>Image generated by Eeschema-SVG </desc>
<g style="fill:#000000; fill-opacity:1.0000;stroke:#000000; stroke-opacity:1.0000;
stroke-linecap:round; stroke-linejoin:round;"
 transform="translate(0 0) scale(1 1)">
</g>
<g style="fill:none; 
stroke:#840000; stroke-width:0.1524; stroke-opacity:1; 
stroke-linecap:round; stroke-linejoin:round;">
<rect x="61.093000" y="4.676300" width="5.080000" height="2.040000" rx="0.000000" />
<path d="M61.0930 5.6963
L58.5530 5.6963
" />
<path d="M66.1730 5.6963
L68.7130 5.6963
" />
</g>
<g style="fill:none; 
stroke:#006464; stroke-width:0.1524; stroke-opacity:1; 
stroke-linecap:round; stroke-linejoin:round;">
<text x="0.0000" y="-1.6510"
textLength="2.5618" font-size="1.6933" lengthAdjust="spacingAndGlyphs"
text-anchor="middle" opacity="0" stroke-opacity="0">R?</text>
<g class="stroked-text"><desc>R?</desc>
<path d="M-0.1512 -1.7064
L-0.5745 -2.3111
" />
<path d="M-0.8769 -1.7064
L-0.8769 -2.9764
" />
<path d="M-0.8769 -2.9764
L-0.3931 -2.9764
" />
<path d="M-0.3931 -2.9764
L-0.2721 -2.9159
" />
<path d="M-0.2721 -2.9159
L-0.2116 -2.8554
" />
<path d="M-0.2116 -2.8554
L-0.1512 -2.7345
" />
<path d="M-0.1512 -2.7345
L-0.1512 -2.5530
" />
<path d="M-0.1512 -2.5530
L-0.2116 -2.4321
" />
<path d="M-0.2116 -2.4321
L-0.2721 -2.3716
" />
<path d="M-0.2721 -2.3716
L-0.3931 -2.3111
" />
<path d="M-0.3931 -2.3111
L-0.8769 -2.3111
" />
<path d="M0.5745 -1.8273
L0.6349 -1.7669
" />
<path d="M0.6349 -1.7669
L0.5745 -1.7064
" />
<path d="M0.5745 -1.7064
L0.5140 -1.7669
" />
<path d="M0.5140 -1.7669
L0.5745 -1.8273
" />
<path d="M0.5745 -1.8273
L0.5745 -1.7064
" />
<path d="M0.3326 -2.9159
L0.4535 -2.9764
" />
<path d="M0.4535 -2.9764
L0.7559 -2.9764
" />
<path d="M0.7559 -2.9764
L0.8768 -2.9159
" />
<path d="M0.8768 -2.9159
L0.9373 -2.7949
" />
<path d="M0.9373 -2.7949
L0.9373 -2.6740
" />
<path d="M0.9373 -2.6740
L0.8768 -2.5530
" />
<path d="M0.8768 -2.5530
L0.8164 -2.4926
" />
<path d="M0.8164 -2.4926
L0.6954 -2.4321
" />
<path d="M0.6954 -2.4321
L0.6349 -2.3716
" />
<path d="M0.6349 -2.3716
L0.5745 -2.2507
" />
<path d="M0.5745 -2.2507
L0.5745 -2.1902
" />
</g></g>
<g style="fill:none; 
stroke:#840084; stroke-width:0.1524; stroke-opacity:1; 
stroke-linecap:round; stroke-linejoin:round;">
<text x="0.0000" y="2.9210"
textLength="3.6503" font-size="1.6933" lengthAdjust="spacingAndGlyphs"
text-anchor="middle" opacity="0" stroke-opacity="0">11k</text>
<g class="stroked-text"><desc>11k</desc>
<path d="M-0.7558 2.8655
L-1.4815 2.8655
" />
<path d="M-1.1187 2.8655
L-1.1187 1.5955
" />
<path d="M-1.1187 1.5955
L-1.2396 1.7770
" />
<path d="M-1.2396 1.7770
L-1.3606 1.8979
" />
<path d="M-1.3606 1.8979
L-1.4815 1.9584
" />
<path d="M0.4536 2.8655
L-0.2720 2.8655
" />
<path d="M0.0907 2.8655
L0.0907 1.5955
" />
<path d="M0.0907 1.5955
L-0.0301 1.7770
" />
<path d="M-0.0301 1.7770
L-0.1511 1.8979
" />
<path d="M-0.1511 1.8979
L-0.2720 1.9584
" />
<path d="M0.9978 2.8655
L0.9978 1.5955
" />
<path d="M1.1188 2.3817
L1.4816 2.8655
" />
<path d="M1.4816 2.0189
L0.9978 2.5027
" />
</g></g> 
</svg>
