<?xml version="1.0" standalone="no"?>
 <!DOCTYPE svg PUBLIC "-//W3C//DTD SVG 1.1//EN" 
 "http://www.w3.org/Graphics/SVG/1.1/DTD/svg11.dtd"> 
<svg
  xmlns:svg="http://www.w3.org/2000/svg"
  xmlns="http://www.w3.org/2000/svg"
  xmlns:xlink="http://www.w3.org/1999/xlink"
  version="1.1"
  width="124.0790mm" height="28.3718mm" viewBox="0.0000 0.0000 124.0790 28.3718">
<title>SVG Image created as [RES_SMD_0805_2012Metric]30_FOJAN FRC0805F30R0TS.svg date 2025/07/03 10:42:47 </title>
  <desc>Image generated by Eeschema-SVG </desc>
<g style="fill:#000000; fill-opacity:1.0000;stroke:#000000; stroke-opacity:1.0000;
stroke-linecap:round; stroke-linejoin:round;"
 transform="translate(0 0) scale(1 1)">
</g>
<g style="fill:none; 
stroke:#840000; stroke-width:0.1524; stroke-opacity:1; 
stroke-linecap:round; stroke-linejoin:round;">
<rect x="59.496400" y="4.904900" width="5.080000" height="2.040000" rx="0.000000" />
<path d="M59.4964 5.9249
L56.9564 5.9249
" />
<path d="M64.5764 5.9249
L67.1164 5.9249
" />
</g>
<g style="fill:none; 
stroke:#006464; stroke-width:0.1524; stroke-opacity:1; 
stroke-linecap:round; stroke-linejoin:round;">
<text x="0.0000" y="-1.9050"
textLength="2.5618" font-size="1.6933" lengthAdjust="spacingAndGlyphs"
text-anchor="middle" opacity="0" stroke-opacity="0">R?</text>
<g class="stroked-text"><desc>R?</desc>
<path d="M-0.1512 -1.9604
L-0.5745 -2.5651
" />
<path d="M-0.8769 -1.9604
L-0.8769 -3.2304
" />
<path d="M-0.8769 -3.2304
L-0.3931 -3.2304
" />
<path d="M-0.3931 -3.2304
L-0.2721 -3.1699
" />
<path d="M-0.2721 -3.1699
L-0.2116 -3.1094
" />
<path d="M-0.2116 -3.1094
L-0.1512 -2.9885
" />
<path d="M-0.1512 -2.9885
L-0.1512 -2.8070
" />
<path d="M-0.1512 -2.8070
L-0.2116 -2.6861
" />
<path d="M-0.2116 -2.6861
L-0.2721 -2.6256
" />
<path d="M-0.2721 -2.6256
L-0.3931 -2.5651
" />
<path d="M-0.3931 -2.5651
L-0.8769 -2.5651
" />
<path d="M0.5745 -2.0813
L0.6349 -2.0209
" />
<path d="M0.6349 -2.0209
L0.5745 -1.9604
" />
<path d="M0.5745 -1.9604
L0.5140 -2.0209
" />
<path d="M0.5140 -2.0209
L0.5745 -2.0813
" />
<path d="M0.5745 -2.0813
L0.5745 -1.9604
" />
<path d="M0.3326 -3.1699
L0.4535 -3.2304
" />
<path d="M0.4535 -3.2304
L0.7559 -3.2304
" />
<path d="M0.7559 -3.2304
L0.8768 -3.1699
" />
<path d="M0.8768 -3.1699
L0.9373 -3.0489
" />
<path d="M0.9373 -3.0489
L0.9373 -2.9280
" />
<path d="M0.9373 -2.9280
L0.8768 -2.8070
" />
<path d="M0.8768 -2.8070
L0.8164 -2.7466
" />
<path d="M0.8164 -2.7466
L0.6954 -2.6861
" />
<path d="M0.6954 -2.6861
L0.6349 -2.6256
" />
<path d="M0.6349 -2.6256
L0.5745 -2.5047
" />
<path d="M0.5745 -2.5047
L0.5745 -2.4442
" />
</g></g>
<g style="fill:none; 
stroke:#840084; stroke-width:0.1524; stroke-opacity:1; 
stroke-linecap:round; stroke-linejoin:round;">
<text x="0.0000" y="3.1750"
textLength="2.6222" font-size="1.6933" lengthAdjust="spacingAndGlyphs"
text-anchor="middle" opacity="0" stroke-opacity="0">30</text>
<g class="stroked-text"><desc>30</desc>
<path d="M-1.0280 1.8495
L-0.2418 1.8495
" />
<path d="M-0.2418 1.8495
L-0.6652 2.3333
" />
<path d="M-0.6652 2.3333
L-0.4837 2.3333
" />
<path d="M-0.4837 2.3333
L-0.3628 2.3938
" />
<path d="M-0.3628 2.3938
L-0.3023 2.4543
" />
<path d="M-0.3023 2.4543
L-0.2418 2.5752
" />
<path d="M-0.2418 2.5752
L-0.2418 2.8776
" />
<path d="M-0.2418 2.8776
L-0.3023 2.9986
" />
<path d="M-0.3023 2.9986
L-0.3628 3.0591
" />
<path d="M-0.3628 3.0591
L-0.4837 3.1195
" />
<path d="M-0.4837 3.1195
L-0.8466 3.1195
" />
<path d="M-0.8466 3.1195
L-0.9675 3.0591
" />
<path d="M-0.9675 3.0591
L-1.0280 2.9986
" />
<path d="M0.5442 1.8495
L0.6652 1.8495
" />
<path d="M0.6652 1.8495
L0.7861 1.9100
" />
<path d="M0.7861 1.9100
L0.8466 1.9705
" />
<path d="M0.8466 1.9705
L0.9071 2.0914
" />
<path d="M0.9071 2.0914
L0.9676 2.3333
" />
<path d="M0.9676 2.3333
L0.9676 2.6357
" />
<path d="M0.9676 2.6357
L0.9071 2.8776
" />
<path d="M0.9071 2.8776
L0.8466 2.9986
" />
<path d="M0.8466 2.9986
L0.7861 3.0591
" />
<path d="M0.7861 3.0591
L0.6652 3.1195
" />
<path d="M0.6652 3.1195
L0.5442 3.1195
" />
<path d="M0.5442 3.1195
L0.4233 3.0591
" />
<path d="M0.4233 3.0591
L0.3628 2.9986
" />
<path d="M0.3628 2.9986
L0.3023 2.8776
" />
<path d="M0.3023 2.8776
L0.2419 2.6357
" />
<path d="M0.2419 2.6357
L0.2419 2.3333
" />
<path d="M0.2419 2.3333
L0.3023 2.0914
" />
<path d="M0.3023 2.0914
L0.3628 1.9705
" />
<path d="M0.3628 1.9705
L0.4233 1.9100
" />
<path d="M0.4233 1.9100
L0.5442 1.8495
" />
</g></g> 
</svg>
