<?xml version="1.0" standalone="no"?>
 <!DOCTYPE svg PUBLIC "-//W3C//DTD SVG 1.1//EN" 
 "http://www.w3.org/Graphics/SVG/1.1/DTD/svg11.dtd"> 
<svg
  xmlns:svg="http://www.w3.org/2000/svg"
  xmlns="http://www.w3.org/2000/svg"
  xmlns:xlink="http://www.w3.org/1999/xlink"
  version="1.1"
  width="154.1780mm" height="28.0670mm" viewBox="0.0000 0.0000 154.1780 28.0670">
<title>SVG Image created as [CAP_SMD_0402_1005Metric]22uF_muRata GRM158R61A226ME15D.svg date 2025/07/24 08:33:52 </title>
  <desc>Image generated by Eeschema-SVG </desc>
<g style="fill:#000000; fill-opacity:1.0000;stroke:#000000; stroke-opacity:1.0000;
stroke-linecap:round; stroke-linejoin:round;"
 transform="translate(0 0) scale(1 1)">
<path style="fill:none; 
stroke:#840000; stroke-width:0.1524; stroke-opacity:1; 
stroke-linecap:round; stroke-linejoin:round;fill:none"
d="M 75.8246,6.6615
76.5846,6.6615
" /> 
<path style="fill:none; 
stroke:#840000; stroke-width:0.1524; stroke-opacity:1; 
stroke-linecap:round; stroke-linejoin:round;fill:none"
d="M 76.5846,4.6315
76.5846,8.6915
" /> 
<path style="fill:none; 
stroke:#840000; stroke-width:0.1524; stroke-opacity:1; 
stroke-linecap:round; stroke-linejoin:round;fill:none"
d="M 77.6046,4.6315
77.6046,8.6915
" /> 
<path style="fill:none; 
stroke:#840000; stroke-width:0.1524; stroke-opacity:1; 
stroke-linecap:round; stroke-linejoin:round;fill:none"
d="M 77.6046,6.6615
78.3646,6.6615
" /> 
</g>
<g style="fill:none; 
stroke:#840000; stroke-width:0.1524; stroke-opacity:1; 
stroke-linecap:round; stroke-linejoin:round;">
<path d="M75.8246 6.6615
L73.2846 6.6615
" />
<path d="M78.3646 6.6615
L80.9046 6.6615
" />
</g>
<g style="fill:none; 
stroke:#006464; stroke-width:0.1524; stroke-opacity:1; 
stroke-linecap:round; stroke-linejoin:round;">
<text x="0.0000" y="-2.6670"
textLength="2.5618" font-size="1.6933" lengthAdjust="spacingAndGlyphs"
text-anchor="middle" opacity="0" stroke-opacity="0">C?</text>
<g class="stroked-text"><desc>C?</desc>
<path d="M-0.1512 -2.8433
L-0.2116 -2.7829
" />
<path d="M-0.2116 -2.7829
L-0.3931 -2.7224
" />
<path d="M-0.3931 -2.7224
L-0.5140 -2.7224
" />
<path d="M-0.5140 -2.7224
L-0.6954 -2.7829
" />
<path d="M-0.6954 -2.7829
L-0.8164 -2.9038
" />
<path d="M-0.8164 -2.9038
L-0.8769 -3.0248
" />
<path d="M-0.8769 -3.0248
L-0.9373 -3.2667
" />
<path d="M-0.9373 -3.2667
L-0.9373 -3.4481
" />
<path d="M-0.9373 -3.4481
L-0.8769 -3.6900
" />
<path d="M-0.8769 -3.6900
L-0.8164 -3.8109
" />
<path d="M-0.8164 -3.8109
L-0.6954 -3.9319
" />
<path d="M-0.6954 -3.9319
L-0.5140 -3.9924
" />
<path d="M-0.5140 -3.9924
L-0.3931 -3.9924
" />
<path d="M-0.3931 -3.9924
L-0.2116 -3.9319
" />
<path d="M-0.2116 -3.9319
L-0.1512 -3.8714
" />
<path d="M0.5745 -2.8433
L0.6349 -2.7829
" />
<path d="M0.6349 -2.7829
L0.5745 -2.7224
" />
<path d="M0.5745 -2.7224
L0.5140 -2.7829
" />
<path d="M0.5140 -2.7829
L0.5745 -2.8433
" />
<path d="M0.5745 -2.8433
L0.5745 -2.7224
" />
<path d="M0.3326 -3.9319
L0.4535 -3.9924
" />
<path d="M0.4535 -3.9924
L0.7559 -3.9924
" />
<path d="M0.7559 -3.9924
L0.8768 -3.9319
" />
<path d="M0.8768 -3.9319
L0.9373 -3.8109
" />
<path d="M0.9373 -3.8109
L0.9373 -3.6900
" />
<path d="M0.9373 -3.6900
L0.8768 -3.5690
" />
<path d="M0.8768 -3.5690
L0.8164 -3.5086
" />
<path d="M0.8164 -3.5086
L0.6954 -3.4481
" />
<path d="M0.6954 -3.4481
L0.6349 -3.3876
" />
<path d="M0.6349 -3.3876
L0.5745 -3.2667
" />
<path d="M0.5745 -3.2667
L0.5745 -3.2062
" />
</g></g>
<g style="fill:none; 
stroke:#840084; stroke-width:0.1524; stroke-opacity:1; 
stroke-linecap:round; stroke-linejoin:round;">
<text x="0.0000" y="3.6830"
textLength="4.8598" font-size="1.6933" lengthAdjust="spacingAndGlyphs"
text-anchor="middle" opacity="0" stroke-opacity="0">22uF</text>
<g class="stroked-text"><desc>22uF</desc>
<path d="M-2.0863 2.4785
L-2.0259 2.4180
" />
<path d="M-2.0259 2.4180
L-1.9049 2.3575
" />
<path d="M-1.9049 2.3575
L-1.6025 2.3575
" />
<path d="M-1.6025 2.3575
L-1.4816 2.4180
" />
<path d="M-1.4816 2.4180
L-1.4211 2.4785
" />
<path d="M-1.4211 2.4785
L-1.3606 2.5994
" />
<path d="M-1.3606 2.5994
L-1.3606 2.7204
" />
<path d="M-1.3606 2.7204
L-1.4211 2.9018
" />
<path d="M-1.4211 2.9018
L-2.1468 3.6275
" />
<path d="M-2.1468 3.6275
L-1.3606 3.6275
" />
<path d="M-0.8768 2.4785
L-0.8164 2.4180
" />
<path d="M-0.8164 2.4180
L-0.6954 2.3575
" />
<path d="M-0.6954 2.3575
L-0.3930 2.3575
" />
<path d="M-0.3930 2.3575
L-0.2721 2.4180
" />
<path d="M-0.2721 2.4180
L-0.2116 2.4785
" />
<path d="M-0.2116 2.4785
L-0.1511 2.5994
" />
<path d="M-0.1511 2.5994
L-0.1511 2.7204
" />
<path d="M-0.1511 2.7204
L-0.2116 2.9018
" />
<path d="M-0.2116 2.9018
L-0.9373 3.6275
" />
<path d="M-0.9373 3.6275
L-0.1511 3.6275
" />
<path d="M0.9373 2.7809
L0.9373 3.6275
" />
<path d="M0.3930 2.7809
L0.3930 3.4461
" />
<path d="M0.3930 3.4461
L0.4535 3.5671
" />
<path d="M0.4535 3.5671
L0.5745 3.6275
" />
<path d="M0.5745 3.6275
L0.7559 3.6275
" />
<path d="M0.7559 3.6275
L0.8768 3.5671
" />
<path d="M0.8768 3.5671
L0.9373 3.5066
" />
<path d="M1.9654 2.9623
L1.5420 2.9623
" />
<path d="M1.5420 3.6275
L1.5420 2.3575
" />
<path d="M1.5420 2.3575
L2.1468 2.3575
" />
</g></g> 
</svg>
