<?xml version="1.0" standalone="no"?>
 <!DOCTYPE svg PUBLIC "-//W3C//DTD SVG 1.1//EN" 
 "http://www.w3.org/Graphics/SVG/1.1/DTD/svg11.dtd"> 
<svg
  xmlns:svg="http://www.w3.org/2000/svg"
  xmlns="http://www.w3.org/2000/svg"
  xmlns:xlink="http://www.w3.org/1999/xlink"
  version="1.1"
  width="178.7144mm" height="28.0670mm" viewBox="0.0000 0.0000 178.7144 28.0670">
<title>SVG Image created as [CAP_SMD_0402_1005Metric]Samsung Electro-Mechanics CL05A475KP5NRNC.svg date 2025/06/06 18:00:43 </title>
  <desc>Image generated by Eeschema-SVG </desc>
<g style="fill:#000000; fill-opacity:1.0000;stroke:#000000; stroke-opacity:1.0000;
stroke-linecap:round; stroke-linejoin:round;"
 transform="translate(0 0) scale(1 1)">
<path style="fill:none; 
stroke:#840000; stroke-width:0.1524; stroke-opacity:1; 
stroke-linecap:round; stroke-linejoin:round;fill:none"
d="M 88.0893,6.6615
88.8493,6.6615
" /> 
<path style="fill:none; 
stroke:#840000; stroke-width:0.1524; stroke-opacity:1; 
stroke-linecap:round; stroke-linejoin:round;fill:none"
d="M 88.8493,4.6315
88.8493,8.6915
" /> 
<path style="fill:none; 
stroke:#840000; stroke-width:0.1524; stroke-opacity:1; 
stroke-linecap:round; stroke-linejoin:round;fill:none"
d="M 89.8693,4.6315
89.8693,8.6915
" /> 
<path style="fill:none; 
stroke:#840000; stroke-width:0.1524; stroke-opacity:1; 
stroke-linecap:round; stroke-linejoin:round;fill:none"
d="M 89.8693,6.6615
90.6293,6.6615
" /> 
</g>
<g style="fill:none; 
stroke:#840000; stroke-width:0.1524; stroke-opacity:1; 
stroke-linecap:round; stroke-linejoin:round;">
<path d="M88.0893 6.6615
L85.5493 6.6615
" />
<path d="M90.6293 6.6615
L93.1693 6.6615
" />
</g>
<g style="fill:none; 
stroke:#006464; stroke-width:0.1524; stroke-opacity:1; 
stroke-linecap:round; stroke-linejoin:round;">
<text x="0.0000" y="-2.6670"
textLength="2.5618" font-size="1.6933" lengthAdjust="spacingAndGlyphs"
text-anchor="middle" opacity="0" stroke-opacity="0">C?</text>
<g class="stroked-text"><desc>C?</desc>
<path d="M-0.1512 -2.8433
L-0.2116 -2.7829
" />
<path d="M-0.2116 -2.7829
L-0.3931 -2.7224
" />
<path d="M-0.3931 -2.7224
L-0.5140 -2.7224
" />
<path d="M-0.5140 -2.7224
L-0.6954 -2.7829
" />
<path d="M-0.6954 -2.7829
L-0.8164 -2.9038
" />
<path d="M-0.8164 -2.9038
L-0.8769 -3.0248
" />
<path d="M-0.8769 -3.0248
L-0.9373 -3.2667
" />
<path d="M-0.9373 -3.2667
L-0.9373 -3.4481
" />
<path d="M-0.9373 -3.4481
L-0.8769 -3.6900
" />
<path d="M-0.8769 -3.6900
L-0.8164 -3.8109
" />
<path d="M-0.8164 -3.8109
L-0.6954 -3.9319
" />
<path d="M-0.6954 -3.9319
L-0.5140 -3.9924
" />
<path d="M-0.5140 -3.9924
L-0.3931 -3.9924
" />
<path d="M-0.3931 -3.9924
L-0.2116 -3.9319
" />
<path d="M-0.2116 -3.9319
L-0.1512 -3.8714
" />
<path d="M0.5745 -2.8433
L0.6349 -2.7829
" />
<path d="M0.6349 -2.7829
L0.5745 -2.7224
" />
<path d="M0.5745 -2.7224
L0.5140 -2.7829
" />
<path d="M0.5140 -2.7829
L0.5745 -2.8433
" />
<path d="M0.5745 -2.8433
L0.5745 -2.7224
" />
<path d="M0.3326 -3.9319
L0.4535 -3.9924
" />
<path d="M0.4535 -3.9924
L0.7559 -3.9924
" />
<path d="M0.7559 -3.9924
L0.8768 -3.9319
" />
<path d="M0.8768 -3.9319
L0.9373 -3.8109
" />
<path d="M0.9373 -3.8109
L0.9373 -3.6900
" />
<path d="M0.9373 -3.6900
L0.8768 -3.5690
" />
<path d="M0.8768 -3.5690
L0.8164 -3.5086
" />
<path d="M0.8164 -3.5086
L0.6954 -3.4481
" />
<path d="M0.6954 -3.4481
L0.6349 -3.3876
" />
<path d="M0.6349 -3.3876
L0.5745 -3.2667
" />
<path d="M0.5745 -3.2667
L0.5745 -3.2062
" />
</g></g>
<g style="fill:none; 
stroke:#840084; stroke-width:0.1524; stroke-opacity:1; 
stroke-linecap:round; stroke-linejoin:round;">
<text x="0.0000" y="3.6830"
textLength="5.4646" font-size="1.6933" lengthAdjust="spacingAndGlyphs"
text-anchor="middle" opacity="0" stroke-opacity="0">4.7uF</text>
<g class="stroked-text"><desc>4.7uF</desc>
<path d="M-1.7840 2.7809
L-1.7840 3.6275
" />
<path d="M-2.0864 2.2971
L-2.3887 3.2042
" />
<path d="M-2.3887 3.2042
L-1.6026 3.2042
" />
<path d="M-1.1188 3.5066
L-1.0583 3.5671
" />
<path d="M-1.0583 3.5671
L-1.1188 3.6275
" />
<path d="M-1.1188 3.6275
L-1.1792 3.5671
" />
<path d="M-1.1792 3.5671
L-1.1188 3.5066
" />
<path d="M-1.1188 3.5066
L-1.1188 3.6275
" />
<path d="M-0.6349 2.3575
L0.2116 2.3575
" />
<path d="M0.2116 2.3575
L-0.3325 3.6275
" />
<path d="M1.2397 2.7809
L1.2397 3.6275
" />
<path d="M0.6954 2.7809
L0.6954 3.4461
" />
<path d="M0.6954 3.4461
L0.7559 3.5671
" />
<path d="M0.7559 3.5671
L0.8769 3.6275
" />
<path d="M0.8769 3.6275
L1.0583 3.6275
" />
<path d="M1.0583 3.6275
L1.1792 3.5671
" />
<path d="M1.1792 3.5671
L1.2397 3.5066
" />
<path d="M2.2678 2.9623
L1.8444 2.9623
" />
<path d="M1.8444 3.6275
L1.8444 2.3575
" />
<path d="M1.8444 2.3575
L2.4492 2.3575
" />
</g></g> 
</svg>
