<?xml version="1.0" standalone="no"?>
 <!DOCTYPE svg PUBLIC "-//W3C//DTD SVG 1.1//EN" 
 "http://www.w3.org/Graphics/SVG/1.1/DTD/svg11.dtd"> 
<svg
  xmlns:svg="http://www.w3.org/2000/svg"
  xmlns="http://www.w3.org/2000/svg"
  xmlns:xlink="http://www.w3.org/1999/xlink"
  version="1.1"
  width="189.0268mm" height="24.7142mm" viewBox="0.0000 0.0000 189.0268 24.7142">
<title>SVG Image created as [P_IND_SMD_1008_2520Metric]470nH_cjiang (Changjiang Microelectronics Tech) FTM252010CR47MCTA.svg date 2025/07/04 10:49:31 </title>
  <desc>Image generated by Eeschema-SVG </desc>
<g style="fill:#000000; fill-opacity:1.0000;stroke:#000000; stroke-opacity:1.0000;
stroke-linecap:round; stroke-linejoin:round;"
 transform="translate(0 0) scale(1 1)">
</g>
<g style="fill:none; 
stroke:#840000; stroke-width:0.1524; stroke-opacity:1; 
stroke-linecap:round; stroke-linejoin:round;">
<path d="M92.3017 5.0921 A1.0139 1.0139 0.0 1 0 90.2817 5.0921" />
<path d="M94.4917 5.0921 A1.0147 1.0147 0.0 1 0 92.4717 5.0921" />
<path d="M96.6417 5.0921 A1.0147 1.0147 0.0 1 0 94.6217 5.0921" />
<path d="M98.8017 5.0921 A1.0147 1.0147 0.0 1 0 96.7817 5.0921" />
<path d="M90.1937 5.1121
L89.4317 5.1121
" />
<path d="M98.8297 5.1121
L99.5917 5.1121
" />
</g>
<g style="fill:none; 
stroke:#006464; stroke-width:0.1524; stroke-opacity:1; 
stroke-linecap:round; stroke-linejoin:round;">
<text x="0.0000" y="-1.3970"
textLength="2.3199" font-size="1.6933" lengthAdjust="spacingAndGlyphs"
text-anchor="middle" opacity="0" stroke-opacity="0">L?</text>
<g class="stroked-text"><desc>L?</desc>
<path d="M-0.1511 -1.4524
L-0.7559 -1.4524
" />
<path d="M-0.7559 -1.4524
L-0.7559 -2.7224
" />
<path d="M0.4536 -1.5733
L0.5140 -1.5129
" />
<path d="M0.5140 -1.5129
L0.4536 -1.4524
" />
<path d="M0.4536 -1.4524
L0.3931 -1.5129
" />
<path d="M0.3931 -1.5129
L0.4536 -1.5733
" />
<path d="M0.4536 -1.5733
L0.4536 -1.4524
" />
<path d="M0.2117 -2.6619
L0.3326 -2.7224
" />
<path d="M0.3326 -2.7224
L0.6350 -2.7224
" />
<path d="M0.6350 -2.7224
L0.7559 -2.6619
" />
<path d="M0.7559 -2.6619
L0.8164 -2.5409
" />
<path d="M0.8164 -2.5409
L0.8164 -2.4200
" />
<path d="M0.8164 -2.4200
L0.7559 -2.2990
" />
<path d="M0.7559 -2.2990
L0.6955 -2.2386
" />
<path d="M0.6955 -2.2386
L0.5745 -2.1781
" />
<path d="M0.5745 -2.1781
L0.5140 -2.1176
" />
<path d="M0.5140 -2.1176
L0.4536 -1.9967
" />
<path d="M0.4536 -1.9967
L0.4536 -1.9362
" />
</g></g>
<g style="fill:none; 
stroke:#840084; stroke-width:0.1524; stroke-opacity:1; 
stroke-linecap:round; stroke-linejoin:round;">
<text x="-0.2540" y="1.9050"
textLength="6.3112" font-size="1.6933" lengthAdjust="spacingAndGlyphs"
text-anchor="middle" opacity="0" stroke-opacity="0">470nH</text>
<g class="stroked-text"><desc>470nH</desc>
<path d="M-2.4613 1.0029
L-2.4613 1.8495
" />
<path d="M-2.7637 0.5191
L-3.0660 1.4262
" />
<path d="M-3.0660 1.4262
L-2.2799 1.4262
" />
<path d="M-1.9170 0.5795
L-1.0704 0.5795
" />
<path d="M-1.0704 0.5795
L-1.6146 1.8495
" />
<path d="M-0.3447 0.5795
L-0.2237 0.5795
" />
<path d="M-0.2237 0.5795
L-0.1028 0.6400
" />
<path d="M-0.1028 0.6400
L-0.0423 0.7005
" />
<path d="M-0.0423 0.7005
L0.0181 0.8214
" />
<path d="M0.0181 0.8214
L0.0786 1.0633
" />
<path d="M0.0786 1.0633
L0.0786 1.3657
" />
<path d="M0.0786 1.3657
L0.0181 1.6076
" />
<path d="M0.0181 1.6076
L-0.0423 1.7286
" />
<path d="M-0.0423 1.7286
L-0.1028 1.7891
" />
<path d="M-0.1028 1.7891
L-0.2237 1.8495
" />
<path d="M-0.2237 1.8495
L-0.3447 1.8495
" />
<path d="M-0.3447 1.8495
L-0.4656 1.7891
" />
<path d="M-0.4656 1.7891
L-0.5261 1.7286
" />
<path d="M-0.5261 1.7286
L-0.5866 1.6076
" />
<path d="M-0.5866 1.6076
L-0.6470 1.3657
" />
<path d="M-0.6470 1.3657
L-0.6470 1.0633
" />
<path d="M-0.6470 1.0633
L-0.5866 0.8214
" />
<path d="M-0.5866 0.8214
L-0.5261 0.7005
" />
<path d="M-0.5261 0.7005
L-0.4656 0.6400
" />
<path d="M-0.4656 0.6400
L-0.3447 0.5795
" />
<path d="M0.6228 1.0029
L0.6228 1.8495
" />
<path d="M0.6228 1.1238
L0.6833 1.0633
" />
<path d="M0.6833 1.0633
L0.8043 1.0029
" />
<path d="M0.8043 1.0029
L0.9857 1.0029
" />
<path d="M0.9857 1.0029
L1.1066 1.0633
" />
<path d="M1.1066 1.0633
L1.1671 1.1843
" />
<path d="M1.1671 1.1843
L1.1671 1.8495
" />
<path d="M1.7718 1.8495
L1.7718 0.5795
" />
<path d="M1.7718 1.1843
L2.4975 1.1843
" />
<path d="M2.4975 1.8495
L2.4975 0.5795
" />
</g></g> 
</svg>
