<?xml version="1.0" standalone="no"?>
 <!DOCTYPE svg PUBLIC "-//W3C//DTD SVG 1.1//EN" 
 "http://www.w3.org/Graphics/SVG/1.1/DTD/svg11.dtd"> 
<svg
  xmlns:svg="http://www.w3.org/2000/svg"
  xmlns="http://www.w3.org/2000/svg"
  xmlns:xlink="http://www.w3.org/1999/xlink"
  version="1.1"
  width="156.5910mm" height="25.6286mm" viewBox="0.0000 0.0000 156.5910 25.6286">
<title>SVG Image created as [P_IND_SMD_1008_2520Metric]330nH_cjiang (Changjiang Microelectronics Tech) FPA252012D-R33MT0.svg date 2025/07/04 09:54:38 </title>
  <desc>Image generated by Eeschema-SVG </desc>
<g style="fill:#000000; fill-opacity:1.0000;stroke:#000000; stroke-opacity:1.0000;
stroke-linecap:round; stroke-linejoin:round;"
 transform="translate(0 0) scale(1 1)">
</g>
<g style="fill:none; 
stroke:#840000; stroke-width:0.1524; stroke-opacity:1; 
stroke-linecap:round; stroke-linejoin:round;">
<path d="M76.0822 5.1683 A1.0139 1.0139 0.0 1 0 74.0622 5.1683" />
<path d="M78.2722 5.1683 A1.0147 1.0147 0.0 1 0 76.2522 5.1683" />
<path d="M80.4222 5.1683 A1.0147 1.0147 0.0 1 0 78.4022 5.1683" />
<path d="M82.5822 5.1683 A1.0147 1.0147 0.0 1 0 80.5622 5.1683" />
<path d="M73.9742 5.1883
L73.2122 5.1883
" />
<path d="M82.6102 5.1883
L83.3722 5.1883
" />
</g>
<g style="fill:none; 
stroke:#006464; stroke-width:0.1524; stroke-opacity:1; 
stroke-linecap:round; stroke-linejoin:round;">
<text x="0.0000" y="-1.3970"
textLength="2.3199" font-size="1.6933" lengthAdjust="spacingAndGlyphs"
text-anchor="middle" opacity="0" stroke-opacity="0">L?</text>
<g class="stroked-text"><desc>L?</desc>
<path d="M-0.1511 -1.4524
L-0.7559 -1.4524
" />
<path d="M-0.7559 -1.4524
L-0.7559 -2.7224
" />
<path d="M0.4536 -1.5733
L0.5140 -1.5129
" />
<path d="M0.5140 -1.5129
L0.4536 -1.4524
" />
<path d="M0.4536 -1.4524
L0.3931 -1.5129
" />
<path d="M0.3931 -1.5129
L0.4536 -1.5733
" />
<path d="M0.4536 -1.5733
L0.4536 -1.4524
" />
<path d="M0.2117 -2.6619
L0.3326 -2.7224
" />
<path d="M0.3326 -2.7224
L0.6350 -2.7224
" />
<path d="M0.6350 -2.7224
L0.7559 -2.6619
" />
<path d="M0.7559 -2.6619
L0.8164 -2.5409
" />
<path d="M0.8164 -2.5409
L0.8164 -2.4200
" />
<path d="M0.8164 -2.4200
L0.7559 -2.2990
" />
<path d="M0.7559 -2.2990
L0.6955 -2.2386
" />
<path d="M0.6955 -2.2386
L0.5745 -2.1781
" />
<path d="M0.5745 -2.1781
L0.5140 -2.1176
" />
<path d="M0.5140 -2.1176
L0.4536 -1.9967
" />
<path d="M0.4536 -1.9967
L0.4536 -1.9362
" />
</g><text x="0.0000" y="2.6670"
textLength="21.0673" font-size="1.6933" lengthAdjust="spacingAndGlyphs"
text-anchor="middle" opacity="0" stroke-opacity="0">FPA252012D-R33MT0</text>
<g class="stroked-text"><desc>FPA252012D-R33MT0</desc>
<path d="M-9.7062 1.9463
L-10.1296 1.9463
" />
<path d="M-10.1296 2.6115
L-10.1296 1.3415
" />
<path d="M-10.1296 1.3415
L-9.5248 1.3415
" />
<path d="M-9.0410 2.6115
L-9.0410 1.3415
" />
<path d="M-9.0410 1.3415
L-8.5572 1.3415
" />
<path d="M-8.5572 1.3415
L-8.4362 1.4020
" />
<path d="M-8.4362 1.4020
L-8.3757 1.4625
" />
<path d="M-8.3757 1.4625
L-8.3153 1.5834
" />
<path d="M-8.3153 1.5834
L-8.3153 1.7649
" />
<path d="M-8.3153 1.7649
L-8.3757 1.8858
" />
<path d="M-8.3757 1.8858
L-8.4362 1.9463
" />
<path d="M-8.4362 1.9463
L-8.5572 2.0068
" />
<path d="M-8.5572 2.0068
L-9.0410 2.0068
" />
<path d="M-7.8314 2.2487
L-7.2267 2.2487
" />
<path d="M-7.9524 2.6115
L-7.5291 1.3415
" />
<path d="M-7.5291 1.3415
L-7.1057 2.6115
" />
<path d="M-6.7428 1.4625
L-6.6824 1.4020
" />
<path d="M-6.6824 1.4020
L-6.5614 1.3415
" />
<path d="M-6.5614 1.3415
L-6.2590 1.3415
" />
<path d="M-6.2590 1.3415
L-6.1381 1.4020
" />
<path d="M-6.1381 1.4020
L-6.0776 1.4625
" />
<path d="M-6.0776 1.4625
L-6.0171 1.5834
" />
<path d="M-6.0171 1.5834
L-6.0171 1.7044
" />
<path d="M-6.0171 1.7044
L-6.0776 1.8858
" />
<path d="M-6.0776 1.8858
L-6.8033 2.6115
" />
<path d="M-6.8033 2.6115
L-6.0171 2.6115
" />
<path d="M-4.8681 1.3415
L-5.4729 1.3415
" />
<path d="M-5.4729 1.3415
L-5.5333 1.9463
" />
<path d="M-5.5333 1.9463
L-5.4729 1.8858
" />
<path d="M-5.4729 1.8858
L-5.3519 1.8253
" />
<path d="M-5.3519 1.8253
L-5.0495 1.8253
" />
<path d="M-5.0495 1.8253
L-4.9286 1.8858
" />
<path d="M-4.9286 1.8858
L-4.8681 1.9463
" />
<path d="M-4.8681 1.9463
L-4.8076 2.0672
" />
<path d="M-4.8076 2.0672
L-4.8076 2.3696
" />
<path d="M-4.8076 2.3696
L-4.8681 2.4906
" />
<path d="M-4.8681 2.4906
L-4.9286 2.5511
" />
<path d="M-4.9286 2.5511
L-5.0495 2.6115
" />
<path d="M-5.0495 2.6115
L-5.3519 2.6115
" />
<path d="M-5.3519 2.6115
L-5.4729 2.5511
" />
<path d="M-5.4729 2.5511
L-5.5333 2.4906
" />
<path d="M-4.3238 1.4625
L-4.2634 1.4020
" />
<path d="M-4.2634 1.4020
L-4.1424 1.3415
" />
<path d="M-4.1424 1.3415
L-3.8400 1.3415
" />
<path d="M-3.8400 1.3415
L-3.7191 1.4020
" />
<path d="M-3.7191 1.4020
L-3.6586 1.4625
" />
<path d="M-3.6586 1.4625
L-3.5981 1.5834
" />
<path d="M-3.5981 1.5834
L-3.5981 1.7044
" />
<path d="M-3.5981 1.7044
L-3.6586 1.8858
" />
<path d="M-3.6586 1.8858
L-4.3843 2.6115
" />
<path d="M-4.3843 2.6115
L-3.5981 2.6115
" />
<path d="M-2.8120 1.3415
L-2.6910 1.3415
" />
<path d="M-2.6910 1.3415
L-2.5701 1.4020
" />
<path d="M-2.5701 1.4020
L-2.5096 1.4625
" />
<path d="M-2.5096 1.4625
L-2.4491 1.5834
" />
<path d="M-2.4491 1.5834
L-2.3886 1.8253
" />
<path d="M-2.3886 1.8253
L-2.3886 2.1277
" />
<path d="M-2.3886 2.1277
L-2.4491 2.3696
" />
<path d="M-2.4491 2.3696
L-2.5096 2.4906
" />
<path d="M-2.5096 2.4906
L-2.5701 2.5511
" />
<path d="M-2.5701 2.5511
L-2.6910 2.6115
" />
<path d="M-2.6910 2.6115
L-2.8120 2.6115
" />
<path d="M-2.8120 2.6115
L-2.9329 2.5511
" />
<path d="M-2.9329 2.5511
L-2.9934 2.4906
" />
<path d="M-2.9934 2.4906
L-3.0539 2.3696
" />
<path d="M-3.0539 2.3696
L-3.1143 2.1277
" />
<path d="M-3.1143 2.1277
L-3.1143 1.8253
" />
<path d="M-3.1143 1.8253
L-3.0539 1.5834
" />
<path d="M-3.0539 1.5834
L-2.9934 1.4625
" />
<path d="M-2.9934 1.4625
L-2.9329 1.4020
" />
<path d="M-2.9329 1.4020
L-2.8120 1.3415
" />
<path d="M-1.1791 2.6115
L-1.9048 2.6115
" />
<path d="M-1.5420 2.6115
L-1.5420 1.3415
" />
<path d="M-1.5420 1.3415
L-1.6629 1.5230
" />
<path d="M-1.6629 1.5230
L-1.7839 1.6439
" />
<path d="M-1.7839 1.6439
L-1.9048 1.7044
" />
<path d="M-0.6953 1.4625
L-0.6349 1.4020
" />
<path d="M-0.6349 1.4020
L-0.5139 1.3415
" />
<path d="M-0.5139 1.3415
L-0.2115 1.3415
" />
<path d="M-0.2115 1.3415
L-0.0906 1.4020
" />
<path d="M-0.0906 1.4020
L-0.0301 1.4625
" />
<path d="M-0.0301 1.4625
L0.0303 1.5834
" />
<path d="M0.0303 1.5834
L0.0303 1.7044
" />
<path d="M0.0303 1.7044
L-0.0301 1.8858
" />
<path d="M-0.0301 1.8858
L-0.7558 2.6115
" />
<path d="M-0.7558 2.6115
L0.0303 2.6115
" />
<path d="M0.5745 2.6115
L0.5745 1.3415
" />
<path d="M0.5745 1.3415
L0.8769 1.3415
" />
<path d="M0.8769 1.3415
L1.0583 1.4020
" />
<path d="M1.0583 1.4020
L1.1793 1.5230
" />
<path d="M1.1793 1.5230
L1.2398 1.6439
" />
<path d="M1.2398 1.6439
L1.3002 1.8858
" />
<path d="M1.3002 1.8858
L1.3002 2.0672
" />
<path d="M1.3002 2.0672
L1.2398 2.3091
" />
<path d="M1.2398 2.3091
L1.1793 2.4301
" />
<path d="M1.1793 2.4301
L1.0583 2.5511
" />
<path d="M1.0583 2.5511
L0.8769 2.6115
" />
<path d="M0.8769 2.6115
L0.5745 2.6115
" />
<path d="M1.8445 2.1277
L2.8122 2.1277
" />
<path d="M4.1426 2.6115
L3.7193 2.0068
" />
<path d="M3.4169 2.6115
L3.4169 1.3415
" />
<path d="M3.4169 1.3415
L3.9007 1.3415
" />
<path d="M3.9007 1.3415
L4.0217 1.4020
" />
<path d="M4.0217 1.4020
L4.0822 1.4625
" />
<path d="M4.0822 1.4625
L4.1426 1.5834
" />
<path d="M4.1426 1.5834
L4.1426 1.7649
" />
<path d="M4.1426 1.7649
L4.0822 1.8858
" />
<path d="M4.0822 1.8858
L4.0217 1.9463
" />
<path d="M4.0217 1.9463
L3.9007 2.0068
" />
<path d="M3.9007 2.0068
L3.4169 2.0068
" />
<path d="M4.5660 1.3415
L5.3522 1.3415
" />
<path d="M5.3522 1.3415
L4.9288 1.8253
" />
<path d="M4.9288 1.8253
L5.1103 1.8253
" />
<path d="M5.1103 1.8253
L5.2312 1.8858
" />
<path d="M5.2312 1.8858
L5.2917 1.9463
" />
<path d="M5.2917 1.9463
L5.3522 2.0672
" />
<path d="M5.3522 2.0672
L5.3522 2.3696
" />
<path d="M5.3522 2.3696
L5.2917 2.4906
" />
<path d="M5.2917 2.4906
L5.2312 2.5511
" />
<path d="M5.2312 2.5511
L5.1103 2.6115
" />
<path d="M5.1103 2.6115
L4.7474 2.6115
" />
<path d="M4.7474 2.6115
L4.6265 2.5511
" />
<path d="M4.6265 2.5511
L4.5660 2.4906
" />
<path d="M5.7755 1.3415
L6.5617 1.3415
" />
<path d="M6.5617 1.3415
L6.1383 1.8253
" />
<path d="M6.1383 1.8253
L6.3198 1.8253
" />
<path d="M6.3198 1.8253
L6.4407 1.8858
" />
<path d="M6.4407 1.8858
L6.5012 1.9463
" />
<path d="M6.5012 1.9463
L6.5617 2.0672
" />
<path d="M6.5617 2.0672
L6.5617 2.3696
" />
<path d="M6.5617 2.3696
L6.5012 2.4906
" />
<path d="M6.5012 2.4906
L6.4407 2.5511
" />
<path d="M6.4407 2.5511
L6.3198 2.6115
" />
<path d="M6.3198 2.6115
L5.9569 2.6115
" />
<path d="M5.9569 2.6115
L5.8360 2.5511
" />
<path d="M5.8360 2.5511
L5.7755 2.4906
" />
<path d="M7.1059 2.6115
L7.1059 1.3415
" />
<path d="M7.1059 1.3415
L7.5293 2.2487
" />
<path d="M7.5293 2.2487
L7.9526 1.3415
" />
<path d="M7.9526 1.3415
L7.9526 2.6115
" />
<path d="M8.3759 1.3415
L9.1016 1.3415
" />
<path d="M8.7388 2.6115
L8.7388 1.3415
" />
<path d="M9.7668 1.3415
L9.8878 1.3415
" />
<path d="M9.8878 1.3415
L10.0087 1.4020
" />
<path d="M10.0087 1.4020
L10.0692 1.4625
" />
<path d="M10.0692 1.4625
L10.1297 1.5834
" />
<path d="M10.1297 1.5834
L10.1902 1.8253
" />
<path d="M10.1902 1.8253
L10.1902 2.1277
" />
<path d="M10.1902 2.1277
L10.1297 2.3696
" />
<path d="M10.1297 2.3696
L10.0692 2.4906
" />
<path d="M10.0692 2.4906
L10.0087 2.5511
" />
<path d="M10.0087 2.5511
L9.8878 2.6115
" />
<path d="M9.8878 2.6115
L9.7668 2.6115
" />
<path d="M9.7668 2.6115
L9.6459 2.5511
" />
<path d="M9.6459 2.5511
L9.5854 2.4906
" />
<path d="M9.5854 2.4906
L9.5249 2.3696
" />
<path d="M9.5249 2.3696
L9.4645 2.1277
" />
<path d="M9.4645 2.1277
L9.4645 1.8253
" />
<path d="M9.4645 1.8253
L9.5249 1.5834
" />
<path d="M9.5249 1.5834
L9.5854 1.4625
" />
<path d="M9.5854 1.4625
L9.6459 1.4020
" />
<path d="M9.6459 1.4020
L9.7668 1.3415
" />
</g></g> 
</svg>
