<?xml version="1.0" standalone="no"?>
 <!DOCTYPE svg PUBLIC "-//W3C//DTD SVG 1.1//EN" 
 "http://www.w3.org/Graphics/SVG/1.1/DTD/svg11.dtd"> 
<svg
  xmlns:svg="http://www.w3.org/2000/svg"
  xmlns="http://www.w3.org/2000/svg"
  xmlns:xlink="http://www.w3.org/1999/xlink"
  version="1.1"
  width="149.6822mm" height="29.2862mm" viewBox="0.0000 0.0000 149.6822 29.2862">
<title>SVG Image created as [CAP_SMD_0201_0603Metric]1n_YAGEO CC0201KRX7R6BB102.svg date 2025/07/24 08:46:13 </title>
  <desc>Image generated by Eeschema-SVG </desc>
<g style="fill:#000000; fill-opacity:1.0000;stroke:#000000; stroke-opacity:1.0000;
stroke-linecap:round; stroke-linejoin:round;"
 transform="translate(0 0) scale(1 1)">
<path style="fill:none; 
stroke:#840000; stroke-width:0.1524; stroke-opacity:1; 
stroke-linecap:round; stroke-linejoin:round;fill:none"
d="M 73.5750,7.0171
74.3350,7.0171
" /> 
<path style="fill:none; 
stroke:#840000; stroke-width:0.1524; stroke-opacity:1; 
stroke-linecap:round; stroke-linejoin:round;fill:none"
d="M 74.3350,4.9871
74.3350,9.0471
" /> 
<path style="fill:none; 
stroke:#840000; stroke-width:0.1524; stroke-opacity:1; 
stroke-linecap:round; stroke-linejoin:round;fill:none"
d="M 75.3550,4.9871
75.3550,9.0471
" /> 
<path style="fill:none; 
stroke:#840000; stroke-width:0.1524; stroke-opacity:1; 
stroke-linecap:round; stroke-linejoin:round;fill:none"
d="M 75.3550,7.0171
76.1150,7.0171
" /> 
</g>
<g style="fill:none; 
stroke:#840000; stroke-width:0.1524; stroke-opacity:1; 
stroke-linecap:round; stroke-linejoin:round;">
<path d="M73.5750 7.0171
L71.0350 7.0171
" />
<path d="M76.1150 7.0171
L78.6550 7.0171
" />
</g>
<g style="fill:none; 
stroke:#006464; stroke-width:0.1524; stroke-opacity:1; 
stroke-linecap:round; stroke-linejoin:round;">
<text x="0.0000" y="-2.9210"
textLength="2.5618" font-size="1.6933" lengthAdjust="spacingAndGlyphs"
text-anchor="middle" opacity="0" stroke-opacity="0">C?</text>
<g class="stroked-text"><desc>C?</desc>
<path d="M-0.1512 -3.0973
L-0.2116 -3.0369
" />
<path d="M-0.2116 -3.0369
L-0.3931 -2.9764
" />
<path d="M-0.3931 -2.9764
L-0.5140 -2.9764
" />
<path d="M-0.5140 -2.9764
L-0.6954 -3.0369
" />
<path d="M-0.6954 -3.0369
L-0.8164 -3.1578
" />
<path d="M-0.8164 -3.1578
L-0.8769 -3.2788
" />
<path d="M-0.8769 -3.2788
L-0.9373 -3.5207
" />
<path d="M-0.9373 -3.5207
L-0.9373 -3.7021
" />
<path d="M-0.9373 -3.7021
L-0.8769 -3.9440
" />
<path d="M-0.8769 -3.9440
L-0.8164 -4.0649
" />
<path d="M-0.8164 -4.0649
L-0.6954 -4.1859
" />
<path d="M-0.6954 -4.1859
L-0.5140 -4.2464
" />
<path d="M-0.5140 -4.2464
L-0.3931 -4.2464
" />
<path d="M-0.3931 -4.2464
L-0.2116 -4.1859
" />
<path d="M-0.2116 -4.1859
L-0.1512 -4.1254
" />
<path d="M0.5745 -3.0973
L0.6349 -3.0369
" />
<path d="M0.6349 -3.0369
L0.5745 -2.9764
" />
<path d="M0.5745 -2.9764
L0.5140 -3.0369
" />
<path d="M0.5140 -3.0369
L0.5745 -3.0973
" />
<path d="M0.5745 -3.0973
L0.5745 -2.9764
" />
<path d="M0.3326 -4.1859
L0.4535 -4.2464
" />
<path d="M0.4535 -4.2464
L0.7559 -4.2464
" />
<path d="M0.7559 -4.2464
L0.8768 -4.1859
" />
<path d="M0.8768 -4.1859
L0.9373 -4.0649
" />
<path d="M0.9373 -4.0649
L0.9373 -3.9440
" />
<path d="M0.9373 -3.9440
L0.8768 -3.8230
" />
<path d="M0.8768 -3.8230
L0.8164 -3.7626
" />
<path d="M0.8164 -3.7626
L0.6954 -3.7021
" />
<path d="M0.6954 -3.7021
L0.6349 -3.6416
" />
<path d="M0.6349 -3.6416
L0.5745 -3.5207
" />
<path d="M0.5745 -3.5207
L0.5745 -3.4602
" />
</g></g>
<g style="fill:none; 
stroke:#840084; stroke-width:0.1524; stroke-opacity:1; 
stroke-linecap:round; stroke-linejoin:round;">
<text x="0.0000" y="3.6830"
textLength="3.6503" font-size="1.6933" lengthAdjust="spacingAndGlyphs"
text-anchor="middle" opacity="0" stroke-opacity="0">1nF</text>
<g class="stroked-text"><desc>1nF</desc>
<path d="M-0.7558 3.6275
L-1.4815 3.6275
" />
<path d="M-1.1187 3.6275
L-1.1187 2.3575
" />
<path d="M-1.1187 2.3575
L-1.2396 2.5390
" />
<path d="M-1.2396 2.5390
L-1.3606 2.6599
" />
<path d="M-1.3606 2.6599
L-1.4815 2.7204
" />
<path d="M-0.2116 2.7809
L-0.2116 3.6275
" />
<path d="M-0.2116 2.9018
L-0.1511 2.8413
" />
<path d="M-0.1511 2.8413
L-0.0301 2.7809
" />
<path d="M-0.0301 2.7809
L0.1512 2.7809
" />
<path d="M0.1512 2.7809
L0.2721 2.8413
" />
<path d="M0.2721 2.8413
L0.3326 2.9623
" />
<path d="M0.3326 2.9623
L0.3326 3.6275
" />
<path d="M1.3607 2.9623
L0.9373 2.9623
" />
<path d="M0.9373 3.6275
L0.9373 2.3575
" />
<path d="M0.9373 2.3575
L1.5421 2.3575
" />
</g></g> 
</svg>
