<?xml version="1.0" standalone="no"?>
 <!DOCTYPE svg PUBLIC "-//W3C//DTD SVG 1.1//EN" 
 "http://www.w3.org/Graphics/SVG/1.1/DTD/svg11.dtd"> 
<svg
  xmlns:svg="http://www.w3.org/2000/svg"
  xmlns="http://www.w3.org/2000/svg"
  xmlns:xlink="http://www.w3.org/1999/xlink"
  version="1.1"
  width="172.4660mm" height="29.2862mm" viewBox="0.0000 0.0000 172.4660 29.2862">
<title>SVG Image created as [CAP_SMD_0201_0603Metric]100nF_YAGEO CC0201KRX5R6BB104.svg date 2025/07/04 14:04:17 </title>
  <desc>Image generated by Eeschema-SVG </desc>
<g style="fill:#000000; fill-opacity:1.0000;stroke:#000000; stroke-opacity:1.0000;
stroke-linecap:round; stroke-linejoin:round;"
 transform="translate(0 0) scale(1 1)">
<path style="fill:none; 
stroke:#840000; stroke-width:0.1524; stroke-opacity:1; 
stroke-linecap:round; stroke-linejoin:round;fill:none"
d="M 84.9688,7.0171
85.7288,7.0171
" /> 
<path style="fill:none; 
stroke:#840000; stroke-width:0.1524; stroke-opacity:1; 
stroke-linecap:round; stroke-linejoin:round;fill:none"
d="M 85.7288,4.9871
85.7288,9.0471
" /> 
<path style="fill:none; 
stroke:#840000; stroke-width:0.1524; stroke-opacity:1; 
stroke-linecap:round; stroke-linejoin:round;fill:none"
d="M 86.7488,4.9871
86.7488,9.0471
" /> 
<path style="fill:none; 
stroke:#840000; stroke-width:0.1524; stroke-opacity:1; 
stroke-linecap:round; stroke-linejoin:round;fill:none"
d="M 86.7488,7.0171
87.5088,7.0171
" /> 
</g>
<g style="fill:none; 
stroke:#840000; stroke-width:0.1524; stroke-opacity:1; 
stroke-linecap:round; stroke-linejoin:round;">
<path d="M84.9688 7.0171
L82.4288 7.0171
" />
<path d="M87.5088 7.0171
L90.0488 7.0171
" />
</g>
<g style="fill:none; 
stroke:#006464; stroke-width:0.1524; stroke-opacity:1; 
stroke-linecap:round; stroke-linejoin:round;">
<text x="0.0000" y="-2.9210"
textLength="2.5618" font-size="1.6933" lengthAdjust="spacingAndGlyphs"
text-anchor="middle" opacity="0" stroke-opacity="0">C?</text>
<g class="stroked-text"><desc>C?</desc>
<path d="M-0.1512 -3.0973
L-0.2116 -3.0369
" />
<path d="M-0.2116 -3.0369
L-0.3931 -2.9764
" />
<path d="M-0.3931 -2.9764
L-0.5140 -2.9764
" />
<path d="M-0.5140 -2.9764
L-0.6954 -3.0369
" />
<path d="M-0.6954 -3.0369
L-0.8164 -3.1578
" />
<path d="M-0.8164 -3.1578
L-0.8769 -3.2788
" />
<path d="M-0.8769 -3.2788
L-0.9373 -3.5207
" />
<path d="M-0.9373 -3.5207
L-0.9373 -3.7021
" />
<path d="M-0.9373 -3.7021
L-0.8769 -3.9440
" />
<path d="M-0.8769 -3.9440
L-0.8164 -4.0649
" />
<path d="M-0.8164 -4.0649
L-0.6954 -4.1859
" />
<path d="M-0.6954 -4.1859
L-0.5140 -4.2464
" />
<path d="M-0.5140 -4.2464
L-0.3931 -4.2464
" />
<path d="M-0.3931 -4.2464
L-0.2116 -4.1859
" />
<path d="M-0.2116 -4.1859
L-0.1512 -4.1254
" />
<path d="M0.5745 -3.0973
L0.6349 -3.0369
" />
<path d="M0.6349 -3.0369
L0.5745 -2.9764
" />
<path d="M0.5745 -2.9764
L0.5140 -3.0369
" />
<path d="M0.5140 -3.0369
L0.5745 -3.0973
" />
<path d="M0.5745 -3.0973
L0.5745 -2.9764
" />
<path d="M0.3326 -4.1859
L0.4535 -4.2464
" />
<path d="M0.4535 -4.2464
L0.7559 -4.2464
" />
<path d="M0.7559 -4.2464
L0.8768 -4.1859
" />
<path d="M0.8768 -4.1859
L0.9373 -4.0649
" />
<path d="M0.9373 -4.0649
L0.9373 -3.9440
" />
<path d="M0.9373 -3.9440
L0.8768 -3.8230
" />
<path d="M0.8768 -3.8230
L0.8164 -3.7626
" />
<path d="M0.8164 -3.7626
L0.6954 -3.7021
" />
<path d="M0.6954 -3.7021
L0.6349 -3.6416
" />
<path d="M0.6349 -3.6416
L0.5745 -3.5207
" />
<path d="M0.5745 -3.5207
L0.5745 -3.4602
" />
</g></g>
<g style="fill:none; 
stroke:#840084; stroke-width:0.1524; stroke-opacity:1; 
stroke-linecap:round; stroke-linejoin:round;">
<text x="0.0000" y="3.6830"
textLength="6.0693" font-size="1.6933" lengthAdjust="spacingAndGlyphs"
text-anchor="middle" opacity="0" stroke-opacity="0">100nF</text>
<g class="stroked-text"><desc>100nF</desc>
<path d="M-1.9653 3.6275
L-2.6910 3.6275
" />
<path d="M-2.3282 3.6275
L-2.3282 2.3575
" />
<path d="M-2.3282 2.3575
L-2.4491 2.5390
" />
<path d="M-2.4491 2.5390
L-2.5701 2.6599
" />
<path d="M-2.5701 2.6599
L-2.6910 2.7204
" />
<path d="M-1.1792 2.3575
L-1.0582 2.3575
" />
<path d="M-1.0582 2.3575
L-0.9373 2.4180
" />
<path d="M-0.9373 2.4180
L-0.8768 2.4785
" />
<path d="M-0.8768 2.4785
L-0.8163 2.5994
" />
<path d="M-0.8163 2.5994
L-0.7558 2.8413
" />
<path d="M-0.7558 2.8413
L-0.7558 3.1437
" />
<path d="M-0.7558 3.1437
L-0.8163 3.3856
" />
<path d="M-0.8163 3.3856
L-0.8768 3.5066
" />
<path d="M-0.8768 3.5066
L-0.9373 3.5671
" />
<path d="M-0.9373 3.5671
L-1.0582 3.6275
" />
<path d="M-1.0582 3.6275
L-1.1792 3.6275
" />
<path d="M-1.1792 3.6275
L-1.3001 3.5671
" />
<path d="M-1.3001 3.5671
L-1.3606 3.5066
" />
<path d="M-1.3606 3.5066
L-1.4211 3.3856
" />
<path d="M-1.4211 3.3856
L-1.4815 3.1437
" />
<path d="M-1.4815 3.1437
L-1.4815 2.8413
" />
<path d="M-1.4815 2.8413
L-1.4211 2.5994
" />
<path d="M-1.4211 2.5994
L-1.3606 2.4785
" />
<path d="M-1.3606 2.4785
L-1.3001 2.4180
" />
<path d="M-1.3001 2.4180
L-1.1792 2.3575
" />
<path d="M0.0302 2.3575
L0.1512 2.3575
" />
<path d="M0.1512 2.3575
L0.2721 2.4180
" />
<path d="M0.2721 2.4180
L0.3326 2.4785
" />
<path d="M0.3326 2.4785
L0.3931 2.5994
" />
<path d="M0.3931 2.5994
L0.4536 2.8413
" />
<path d="M0.4536 2.8413
L0.4536 3.1437
" />
<path d="M0.4536 3.1437
L0.3931 3.3856
" />
<path d="M0.3931 3.3856
L0.3326 3.5066
" />
<path d="M0.3326 3.5066
L0.2721 3.5671
" />
<path d="M0.2721 3.5671
L0.1512 3.6275
" />
<path d="M0.1512 3.6275
L0.0302 3.6275
" />
<path d="M0.0302 3.6275
L-0.0906 3.5671
" />
<path d="M-0.0906 3.5671
L-0.1511 3.5066
" />
<path d="M-0.1511 3.5066
L-0.2116 3.3856
" />
<path d="M-0.2116 3.3856
L-0.2720 3.1437
" />
<path d="M-0.2720 3.1437
L-0.2720 2.8413
" />
<path d="M-0.2720 2.8413
L-0.2116 2.5994
" />
<path d="M-0.2116 2.5994
L-0.1511 2.4785
" />
<path d="M-0.1511 2.4785
L-0.0906 2.4180
" />
<path d="M-0.0906 2.4180
L0.0302 2.3575
" />
<path d="M0.9978 2.7809
L0.9978 3.6275
" />
<path d="M0.9978 2.9018
L1.0583 2.8413
" />
<path d="M1.0583 2.8413
L1.1793 2.7809
" />
<path d="M1.1793 2.7809
L1.3607 2.7809
" />
<path d="M1.3607 2.7809
L1.4816 2.8413
" />
<path d="M1.4816 2.8413
L1.5421 2.9623
" />
<path d="M1.5421 2.9623
L1.5421 3.6275
" />
<path d="M2.5702 2.9623
L2.1468 2.9623
" />
<path d="M2.1468 3.6275
L2.1468 2.3575
" />
<path d="M2.1468 2.3575
L2.7516 2.3575
" />
</g></g> 
</svg>
