<?xml version="1.0" standalone="no"?>
 <!DOCTYPE svg PUBLIC "-//W3C//DTD SVG 1.1//EN" 
 "http://www.w3.org/Graphics/SVG/1.1/DTD/svg11.dtd"> 
<svg
  xmlns:svg="http://www.w3.org/2000/svg"
  xmlns="http://www.w3.org/2000/svg"
  xmlns:xlink="http://www.w3.org/1999/xlink"
  version="1.1"
  width="153.8224mm" height="28.0670mm" viewBox="0.0000 0.0000 153.8224 28.0670">
<title>SVG Image created as [FERRITE_BEAD]Murata Electronics BLM18PG121SN1D.svg date 2025/04/08 10:50:23 </title>
  <desc>Image generated by Eeschema-SVG </desc>
<g style="fill:#000000; fill-opacity:1.0000;stroke:#000000; stroke-opacity:1.0000;
stroke-linecap:round; stroke-linejoin:round;"
 transform="translate(0 0) scale(1 1)">
<path style="fill:none; 
stroke:#840000; stroke-width:0.1524; stroke-opacity:1; 
stroke-linecap:round; stroke-linejoin:round;fill:none"
d="M 74.3735,7.9315
76.2018,7.9315
" /> 
<path style="fill:none; 
stroke:#840000; stroke-width:0.1524; stroke-opacity:1; 
stroke-linecap:round; stroke-linejoin:round;fill:none"
d="M 75.6435,9.2015
76.9135,6.6615
78.1835,6.6615
76.9135,9.2015
Z" /> 
<path style="fill:none; 
stroke:#840000; stroke-width:0.1524; stroke-opacity:1; 
stroke-linecap:round; stroke-linejoin:round;fill:none"
d="M 79.4535,7.9315
77.5834,7.9314
" /> 
</g>
<g style="fill:none; 
stroke:#840000; stroke-width:0.1524; stroke-opacity:1; 
stroke-linecap:round; stroke-linejoin:round;">
<path d="M75.1355 7.9315
L74.3735 7.9315
" />
<path d="M78.6915 7.9315
L79.4535 7.9315
" />
</g>
<g style="fill:none; 
stroke:#006464; stroke-width:0.1524; stroke-opacity:1; 
stroke-linecap:round; stroke-linejoin:round;">
<text x="0.0000" y="-3.9370"
textLength="3.6504" font-size="1.6933" lengthAdjust="spacingAndGlyphs"
text-anchor="middle" opacity="0" stroke-opacity="0">FB?</text>
<g class="stroked-text"><desc>FB?</desc>
<path d="M-0.9978 -4.6576
L-1.4212 -4.6576
" />
<path d="M-1.4212 -3.9924
L-1.4212 -5.2624
" />
<path d="M-1.4212 -5.2624
L-0.8164 -5.2624
" />
<path d="M0.0907 -4.6576
L0.2721 -4.5971
" />
<path d="M0.2721 -4.5971
L0.3326 -4.5367
" />
<path d="M0.3326 -4.5367
L0.3930 -4.4157
" />
<path d="M0.3930 -4.4157
L0.3930 -4.2343
" />
<path d="M0.3930 -4.2343
L0.3326 -4.1133
" />
<path d="M0.3326 -4.1133
L0.2721 -4.0529
" />
<path d="M0.2721 -4.0529
L0.1511 -3.9924
" />
<path d="M0.1511 -3.9924
L-0.3326 -3.9924
" />
<path d="M-0.3326 -3.9924
L-0.3326 -5.2624
" />
<path d="M-0.3326 -5.2624
L0.0907 -5.2624
" />
<path d="M0.0907 -5.2624
L0.2116 -5.2019
" />
<path d="M0.2116 -5.2019
L0.2721 -5.1414
" />
<path d="M0.2721 -5.1414
L0.3326 -5.0205
" />
<path d="M0.3326 -5.0205
L0.3326 -4.8995
" />
<path d="M0.3326 -4.8995
L0.2721 -4.7786
" />
<path d="M0.2721 -4.7786
L0.2116 -4.7181
" />
<path d="M0.2116 -4.7181
L0.0907 -4.6576
" />
<path d="M0.0907 -4.6576
L-0.3326 -4.6576
" />
<path d="M1.1188 -4.1133
L1.1792 -4.0529
" />
<path d="M1.1792 -4.0529
L1.1188 -3.9924
" />
<path d="M1.1188 -3.9924
L1.0583 -4.0529
" />
<path d="M1.0583 -4.0529
L1.1188 -4.1133
" />
<path d="M1.1188 -4.1133
L1.1188 -3.9924
" />
<path d="M0.8769 -5.2019
L0.9978 -5.2624
" />
<path d="M0.9978 -5.2624
L1.3002 -5.2624
" />
<path d="M1.3002 -5.2624
L1.4211 -5.2019
" />
<path d="M1.4211 -5.2019
L1.4816 -5.0809
" />
<path d="M1.4816 -5.0809
L1.4816 -4.9600
" />
<path d="M1.4816 -4.9600
L1.4211 -4.8390
" />
<path d="M1.4211 -4.8390
L1.3607 -4.7786
" />
<path d="M1.3607 -4.7786
L1.2397 -4.7181
" />
<path d="M1.2397 -4.7181
L1.1792 -4.6576
" />
<path d="M1.1792 -4.6576
L1.1188 -4.5367
" />
<path d="M1.1188 -4.5367
L1.1188 -4.4762
" />
</g></g>
<g style="fill:none; 
stroke:#840084; stroke-width:0.1524; stroke-opacity:1; 
stroke-linecap:round; stroke-linejoin:round;">
<text x="0.0000" y="-1.9050"
textLength="14.3545" font-size="1.6933" lengthAdjust="spacingAndGlyphs"
text-anchor="middle" opacity="0" stroke-opacity="0">120Ω@100MHz</text>
<g class="stroked-text"><desc>120Ω@100MHz</desc>
<path d="M-6.1079 -1.9604
L-6.8336 -1.9604
" />
<path d="M-6.4708 -1.9604
L-6.4708 -3.2304
" />
<path d="M-6.4708 -3.2304
L-6.5917 -3.0489
" />
<path d="M-6.5917 -3.0489
L-6.7127 -2.9280
" />
<path d="M-6.7127 -2.9280
L-6.8336 -2.8675
" />
<path d="M-5.6241 -3.1094
L-5.5637 -3.1699
" />
<path d="M-5.5637 -3.1699
L-5.4427 -3.2304
" />
<path d="M-5.4427 -3.2304
L-5.1403 -3.2304
" />
<path d="M-5.1403 -3.2304
L-5.0194 -3.1699
" />
<path d="M-5.0194 -3.1699
L-4.9589 -3.1094
" />
<path d="M-4.9589 -3.1094
L-4.8984 -2.9885
" />
<path d="M-4.8984 -2.9885
L-4.8984 -2.8675
" />
<path d="M-4.8984 -2.8675
L-4.9589 -2.6861
" />
<path d="M-4.9589 -2.6861
L-5.6846 -1.9604
" />
<path d="M-5.6846 -1.9604
L-4.8984 -1.9604
" />
<path d="M-4.1123 -3.2304
L-3.9913 -3.2304
" />
<path d="M-3.9913 -3.2304
L-3.8704 -3.1699
" />
<path d="M-3.8704 -3.1699
L-3.8099 -3.1094
" />
<path d="M-3.8099 -3.1094
L-3.7494 -2.9885
" />
<path d="M-3.7494 -2.9885
L-3.6889 -2.7466
" />
<path d="M-3.6889 -2.7466
L-3.6889 -2.4442
" />
<path d="M-3.6889 -2.4442
L-3.7494 -2.2023
" />
<path d="M-3.7494 -2.2023
L-3.8099 -2.0813
" />
<path d="M-3.8099 -2.0813
L-3.8704 -2.0209
" />
<path d="M-3.8704 -2.0209
L-3.9913 -1.9604
" />
<path d="M-3.9913 -1.9604
L-4.1123 -1.9604
" />
<path d="M-4.1123 -1.9604
L-4.2332 -2.0209
" />
<path d="M-4.2332 -2.0209
L-4.2937 -2.0813
" />
<path d="M-4.2937 -2.0813
L-4.3542 -2.2023
" />
<path d="M-4.3542 -2.2023
L-4.4146 -2.4442
" />
<path d="M-4.4146 -2.4442
L-4.4146 -2.7466
" />
<path d="M-4.4146 -2.7466
L-4.3542 -2.9885
" />
<path d="M-4.3542 -2.9885
L-4.2937 -3.1094
" />
<path d="M-4.2937 -3.1094
L-4.2332 -3.1699
" />
<path d="M-4.2332 -3.1699
L-4.1123 -3.2304
" />
<path d="M-3.2051 -1.9604
L-2.9028 -1.9604
" />
<path d="M-2.9028 -1.9604
L-2.9028 -2.2023
" />
<path d="M-2.9028 -2.2023
L-3.0237 -2.2628
" />
<path d="M-3.0237 -2.2628
L-3.1447 -2.3837
" />
<path d="M-3.1447 -2.3837
L-3.2051 -2.5651
" />
<path d="M-3.2051 -2.5651
L-3.2051 -2.8675
" />
<path d="M-3.2051 -2.8675
L-3.1447 -3.0489
" />
<path d="M-3.1447 -3.0489
L-3.0237 -3.1699
" />
<path d="M-3.0237 -3.1699
L-2.8423 -3.2304
" />
<path d="M-2.8423 -3.2304
L-2.6004 -3.2304
" />
<path d="M-2.6004 -3.2304
L-2.4190 -3.1699
" />
<path d="M-2.4190 -3.1699
L-2.2980 -3.0489
" />
<path d="M-2.2980 -3.0489
L-2.2375 -2.8675
" />
<path d="M-2.2375 -2.8675
L-2.2375 -2.5651
" />
<path d="M-2.2375 -2.5651
L-2.2980 -2.3837
" />
<path d="M-2.2980 -2.3837
L-2.4190 -2.2628
" />
<path d="M-2.4190 -2.2628
L-2.5399 -2.2023
" />
<path d="M-2.5399 -2.2023
L-2.5399 -1.9604
" />
<path d="M-2.5399 -1.9604
L-2.2375 -1.9604
" />
<path d="M-0.9071 -2.5651
L-0.9676 -2.6256
" />
<path d="M-0.9676 -2.6256
L-1.0885 -2.6861
" />
<path d="M-1.0885 -2.6861
L-1.2095 -2.6861
" />
<path d="M-1.2095 -2.6861
L-1.3304 -2.6256
" />
<path d="M-1.3304 -2.6256
L-1.3909 -2.5651
" />
<path d="M-1.3909 -2.5651
L-1.4514 -2.4442
" />
<path d="M-1.4514 -2.4442
L-1.4514 -2.3232
" />
<path d="M-1.4514 -2.3232
L-1.3909 -2.2023
" />
<path d="M-1.3909 -2.2023
L-1.3304 -2.1418
" />
<path d="M-1.3304 -2.1418
L-1.2095 -2.0813
" />
<path d="M-1.2095 -2.0813
L-1.0885 -2.0813
" />
<path d="M-1.0885 -2.0813
L-0.9676 -2.1418
" />
<path d="M-0.9676 -2.1418
L-0.9071 -2.2023
" />
<path d="M-0.9071 -2.6861
L-0.9071 -2.2023
" />
<path d="M-0.9071 -2.2023
L-0.8466 -2.1418
" />
<path d="M-0.8466 -2.1418
L-0.7861 -2.1418
" />
<path d="M-0.7861 -2.1418
L-0.6652 -2.2023
" />
<path d="M-0.6652 -2.2023
L-0.6047 -2.3232
" />
<path d="M-0.6047 -2.3232
L-0.6047 -2.6256
" />
<path d="M-0.6047 -2.6256
L-0.7257 -2.8070
" />
<path d="M-0.7257 -2.8070
L-0.9071 -2.9280
" />
<path d="M-0.9071 -2.9280
L-1.1490 -2.9885
" />
<path d="M-1.1490 -2.9885
L-1.3909 -2.9280
" />
<path d="M-1.3909 -2.9280
L-1.5723 -2.8070
" />
<path d="M-1.5723 -2.8070
L-1.6933 -2.6256
" />
<path d="M-1.6933 -2.6256
L-1.7537 -2.3837
" />
<path d="M-1.7537 -2.3837
L-1.6933 -2.1418
" />
<path d="M-1.6933 -2.1418
L-1.5723 -1.9604
" />
<path d="M-1.5723 -1.9604
L-1.3909 -1.8394
" />
<path d="M-1.3909 -1.8394
L-1.1490 -1.7789
" />
<path d="M-1.1490 -1.7789
L-0.9071 -1.8394
" />
<path d="M-0.9071 -1.8394
L-0.7257 -1.9604
" />
<path d="M0.6048 -1.9604
L-0.1208 -1.9604
" />
<path d="M0.2419 -1.9604
L0.2419 -3.2304
" />
<path d="M0.2419 -3.2304
L0.1210 -3.0489
" />
<path d="M0.1210 -3.0489
L0.0000 -2.9280
" />
<path d="M0.0000 -2.9280
L-0.1208 -2.8675
" />
<path d="M1.3909 -3.2304
L1.5119 -3.2304
" />
<path d="M1.5119 -3.2304
L1.6328 -3.1699
" />
<path d="M1.6328 -3.1699
L1.6933 -3.1094
" />
<path d="M1.6933 -3.1094
L1.7538 -2.9885
" />
<path d="M1.7538 -2.9885
L1.8143 -2.7466
" />
<path d="M1.8143 -2.7466
L1.8143 -2.4442
" />
<path d="M1.8143 -2.4442
L1.7538 -2.2023
" />
<path d="M1.7538 -2.2023
L1.6933 -2.0813
" />
<path d="M1.6933 -2.0813
L1.6328 -2.0209
" />
<path d="M1.6328 -2.0209
L1.5119 -1.9604
" />
<path d="M1.5119 -1.9604
L1.3909 -1.9604
" />
<path d="M1.3909 -1.9604
L1.2700 -2.0209
" />
<path d="M1.2700 -2.0209
L1.2095 -2.0813
" />
<path d="M1.2095 -2.0813
L1.1490 -2.2023
" />
<path d="M1.1490 -2.2023
L1.0886 -2.4442
" />
<path d="M1.0886 -2.4442
L1.0886 -2.7466
" />
<path d="M1.0886 -2.7466
L1.1490 -2.9885
" />
<path d="M1.1490 -2.9885
L1.2095 -3.1094
" />
<path d="M1.2095 -3.1094
L1.2700 -3.1699
" />
<path d="M1.2700 -3.1699
L1.3909 -3.2304
" />
<path d="M2.6004 -3.2304
L2.7214 -3.2304
" />
<path d="M2.7214 -3.2304
L2.8423 -3.1699
" />
<path d="M2.8423 -3.1699
L2.9028 -3.1094
" />
<path d="M2.9028 -3.1094
L2.9633 -2.9885
" />
<path d="M2.9633 -2.9885
L3.0238 -2.7466
" />
<path d="M3.0238 -2.7466
L3.0238 -2.4442
" />
<path d="M3.0238 -2.4442
L2.9633 -2.2023
" />
<path d="M2.9633 -2.2023
L2.9028 -2.0813
" />
<path d="M2.9028 -2.0813
L2.8423 -2.0209
" />
<path d="M2.8423 -2.0209
L2.7214 -1.9604
" />
<path d="M2.7214 -1.9604
L2.6004 -1.9604
" />
<path d="M2.6004 -1.9604
L2.4795 -2.0209
" />
<path d="M2.4795 -2.0209
L2.4190 -2.0813
" />
<path d="M2.4190 -2.0813
L2.3585 -2.2023
" />
<path d="M2.3585 -2.2023
L2.2981 -2.4442
" />
<path d="M2.2981 -2.4442
L2.2981 -2.7466
" />
<path d="M2.2981 -2.7466
L2.3585 -2.9885
" />
<path d="M2.3585 -2.9885
L2.4190 -3.1094
" />
<path d="M2.4190 -3.1094
L2.4795 -3.1699
" />
<path d="M2.4795 -3.1699
L2.6004 -3.2304
" />
<path d="M3.5680 -1.9604
L3.5680 -3.2304
" />
<path d="M3.5680 -3.2304
L3.9914 -2.3232
" />
<path d="M3.9914 -2.3232
L4.4147 -3.2304
" />
<path d="M4.4147 -3.2304
L4.4147 -1.9604
" />
<path d="M5.0194 -1.9604
L5.0194 -3.2304
" />
<path d="M5.0194 -2.6256
L5.7451 -2.6256
" />
<path d="M5.7451 -1.9604
L5.7451 -3.2304
" />
<path d="M6.2290 -2.8070
L6.8942 -2.8070
" />
<path d="M6.8942 -2.8070
L6.2290 -1.9604
" />
<path d="M6.2290 -1.9604
L6.8942 -1.9604
" />
</g></g> 
</svg>
